<?xml version="1.0" encoding="utf-8"?>
<!-- Generator: Adobe Illustrator 16.0.0, SVG Export Plug-In . SVG Version: 6.00 Build 0)  -->
<!DOCTYPE svg PUBLIC "-//W3C//DTD SVG 1.1//EN" "http://www.w3.org/Graphics/SVG/1.1/DTD/svg11.dtd">
<svg version="1.1" xmlns="http://www.w3.org/2000/svg" xmlns:xlink="http://www.w3.org/1999/xlink" x="0px" y="0px"
	 width="891.571px" height="182px" viewBox="0 0 891.571 182" enable-background="new 0 0 891.571 182" xml:space="preserve">
<g id="Layer_1">
</g>
<g id="Layer_2">
</g>
<g id="Layer_3">
	<g>
		<path fill="#474B53" d="M527.304,25.734h0.385c16.852-8.635,21.461-14.736,8.697-19.085c-4.474-1.524-31.771-0.614-31.771-0.614
			s-28.444-0.911-32.917,0.614c-12.763,4.349-8.153,10.45,8.698,19.085h0.485v80c0,17.353-8.482,30.408-29.085,16.608
			l-16.449,24.061c0,0,17.377,30.829,48.271,30.829c32.27,0,43.687-20.517,43.687-64.174V25.734z"/>
		<path fill="#474B53" d="M868.004,156.716h-1.223l-9.637-134.139c11.942-6.993,14.051-12.129,2.9-15.927
			c-4.474-1.524-31.771-0.614-31.771-0.614s-28.443-0.911-32.917,0.614c-10.549,3.594-9.221,8.387,1.068,14.816l-13.888,69
			l-15.319-68.497c11.032-6.684,12.705-11.632,1.881-15.32c-4.474-1.524-31.771-0.614-31.771-0.614s-28.443-0.911-32.917,0.614
			c-10.854,3.698-9.138,8.664,1.979,15.377l-9.676,134.689h-1.305c-3.522,1.805-6.502,3.498-8.908,5.088
			c-2.25-1.488-5.01-3.066-8.239-4.741L640.147,25.734h0.085c16.85-8.635,21.46-14.736,8.696-19.085
			c-4.474-1.524-40.937-0.614-40.937-0.614s-36.465-0.911-40.938,0.614c-12.698,4.327-8.194,10.389,8.449,18.956l-38.34,131.451
			c-16.31,8.455-20.64,14.454-8.045,18.745c4.474,1.524,31.772,0.614,31.772,0.614s28.443,0.911,32.916-0.614
			c12.764-4.349,8.154-10.45-8.698-19.085h-0.383l3.936-20.44h37.185l4.123,20.613c-16.574,8.543-21.043,14.593-8.366,18.912
			c4.474,1.524,32.918,0.614,32.918,0.614s27.297,0.911,31.771-0.614c0.073-0.025,0.139-0.051,0.211-0.076
			c0.073,0.025,0.139,0.051,0.212,0.076c4.473,1.524,31.771,0.614,31.771,0.614s28.443,0.911,32.917-0.614
			c12.764-4.349,8.153-10.45-8.698-19.085h-0.756l0.926-45.905c0.451-21.185-0.931-53.305-0.931-53.305l14.723,77.122
			c-11.746,6.927-13.765,12.024-2.684,15.799c4.474,1.524,27.188,0.614,27.188,0.614s23.861,0.911,28.335-0.614
			c11.137-3.794,9.043-8.923-2.866-15.906l13.813-77.653c0,0-0.279,33.885,0.173,54.168l0.924,45.68h-0.837
			c-16.853,8.635-21.462,14.736-8.699,19.085c4.474,1.524,32.918,0.614,32.918,0.614s27.297,0.911,31.771-0.614
			C889.466,171.452,884.855,165.351,868.004,156.716z M595.197,103.824l11.943-55.795l12.396,55.795H595.197z"/>
		<path fill="#474B53" d="M392.093,156.716h-0.425l-32.377-54.47c19.156-11.042,27.72-22.762,27.72-42.593
			c0-33.938-21.849-52.634-65.3-53.215c-7.576-0.581-30.912-0.402-30.912-0.402s-28.443-0.911-32.917,0.614
			c-11.565,3.94-8.867,9.319,4.276,16.718v133.349h-1.263c-16.851,8.635-21.461,14.736-8.697,19.085
			c4.473,1.524,31.771,0.614,31.771,0.614s28.443,0.911,32.917-0.614c12.662-4.314,8.219-10.354-8.303-18.88v-46.11h8.564
			l23.95,46.042c-16.631,8.562-21.128,14.623-8.433,18.948c4.474,1.524,34.063,0.614,34.063,0.614s29.589,0.911,34.062-0.614
			C413.554,171.452,408.944,165.351,392.093,156.716z M320.754,71.917h-12.17V45.979h9.916c13.747,0,20.039,2.054,20.039,11.614
			C338.539,68.196,333.375,71.917,320.754,71.917z"/>
		<path fill="#474B53" d="M227.172,25.734c16.851-8.635,21.461-14.736,8.697-19.085c-4.473-1.524-31.771-0.614-31.771-0.614
			s-28.443-0.911-32.917,0.614c-12.764,4.349-8.154,10.45,8.697,19.085h0.434v130.981h-0.434c-3.775,1.935-6.93,3.741-9.418,5.43
			c-2.262-1.535-5.083-3.169-8.412-4.907L123.854,25.643c16.704-8.586,21.238-14.66,8.521-18.993
			c-4.474-1.524-40.937-0.614-40.937-0.614S54.974,5.125,50.5,6.649c-12.764,4.349-8.154,10.45,8.697,19.085l-38.25,131.145
			c-16.588,8.548-21.064,14.601-8.382,18.921c4.474,1.524,31.771,0.614,31.771,0.614s28.443,0.911,32.917-0.614
			c12.764-4.349,8.154-10.45-8.697-19.085h-0.097l3.936-20.44h37.185l4.095,20.478c-16.791,8.615-21.37,14.705-8.625,19.047
			c4.474,1.524,32.917,0.614,32.917,0.614s27.298,0.911,31.771-0.614c0.251-0.085,0.483-0.173,0.721-0.26
			c0.238,0.087,0.47,0.174,0.721,0.26c4.474,1.524,32.917,0.614,32.917,0.614s27.298,0.911,31.771-0.614
			c12.764-4.349,8.154-10.45-8.697-19.085h-0.435V25.734H227.172z M78.931,103.824l11.944-55.795l12.395,55.795H78.931z"/>
	</g>
</g>
</svg>
