<?xml version="1.0" encoding="utf-8"?>
<!-- Generator: Adobe Illustrator 16.0.0, SVG Export Plug-In . SVG Version: 6.00 Build 0)  -->
<!DOCTYPE svg PUBLIC "-//W3C//DTD SVG 1.1//EN" "http://www.w3.org/Graphics/SVG/1.1/DTD/svg11.dtd">
<svg version="1.1" id="Layer_1" xmlns="http://www.w3.org/2000/svg" xmlns:xlink="http://www.w3.org/1999/xlink" x="0px" y="0px"
	 width="250px" height="250px" viewBox="0 0 250 250" enable-background="new 0 0 250 250" xml:space="preserve">
<g>
	<path fill="#474B53" d="M143.257,86.19c-4.088,0-7.399,3.135-7.399,7.001v34.145c0,28.055-22.743,50.797-50.797,50.797
		s-50.796-22.742-50.796-50.797V93.191c0-3.867-3.314-7.001-7.403-7.001c-4.089,0-7.404,3.135-7.404,7.001v35.256
		c0,0.115,0.012,0.229,0.018,0.344c0.721,33.121,25.989,60.184,58.336,63.738v31.681c-22.518,0.978-39.755,6.433-39.755,13.019
		c0,7.276,21.044,13.176,47.003,13.176c25.958,0,47.001-5.897,47.001-13.176c0-6.586-17.236-12.041-39.754-13.019v-31.681
		c32.347-3.557,57.615-30.617,58.334-63.738c0.008-0.115,0.021-0.229,0.021-0.344V93.191
		C150.661,89.325,147.348,86.19,143.257,86.19z"/>
	<path fill="#474B53" d="M85.059,167.32c21.514,0,39.152-16.543,40.919-37.604h0.153V92.223c-6.711-1.621-20.404-4.121-41.073-4.121
		s-34.363,2.5-41.073,4.121v37.496h0.156C45.906,150.777,63.545,167.32,85.059,167.32z"/>
	<path fill="#474B53" d="M126.132,77.606V40.629c0-22.684-18.39-41.073-41.073-41.073s-41.073,18.39-41.073,41.073v36.977
		c8.469-1.303,26.485-3.781,41.073-3.781S117.663,76.303,126.132,77.606z M105.764,22.858c2.758,0,4.996,2.238,4.996,4.998
		c0,2.76-2.238,4.999-4.996,4.999c-2.762,0-5-2.238-5-4.999C100.764,25.095,103.002,22.858,105.764,22.858z M105.764,42.851
		c2.758,0,4.996,2.238,4.996,4.999c0,2.76-2.238,4.999-4.996,4.999c-2.762,0-5-2.238-5-4.999
		C100.764,45.089,103.002,42.851,105.764,42.851z M84.844,12.862c2.762,0,4.997,2.238,4.997,4.998c0,2.76-2.235,4.998-4.997,4.998
		c-2.76,0-4.999-2.238-4.999-4.998C79.845,15.1,82.084,12.862,84.844,12.862z M64.355,52.848c-2.76,0-4.998-2.238-4.998-4.999
		c0-2.761,2.238-4.999,4.998-4.999c2.76,0,4.998,2.238,4.998,4.999C69.353,50.61,67.115,52.848,64.355,52.848z M64.355,32.855
		c-2.76,0-4.998-2.238-4.998-4.999c0-2.761,2.238-4.998,4.998-4.998c2.76,0,4.998,2.238,4.998,4.998
		C69.353,30.616,67.115,32.855,64.355,32.855z M79.845,37.854c0-2.761,2.239-4.999,4.999-4.999c2.762,0,4.997,2.238,4.997,4.999
		s-2.235,4.998-4.997,4.998C82.084,42.851,79.845,40.614,79.845,37.854z"/>
</g>
<path fill="#45B649" d="M92.789,136.932c0,0,43.333,10.735,57.543,63.379c0,0,33.617-73.677,96.623-106.811
	c0,0-49.168-7.31-94.702,59.613C152.253,153.113,131.395,128.455,92.789,136.932z"/>
</svg>
