<?xml version="1.0" encoding="utf-8"?>
<!-- Generator: Adobe Illustrator 16.0.0, SVG Export Plug-In . SVG Version: 6.00 Build 0)  -->
<!DOCTYPE svg PUBLIC "-//W3C//DTD SVG 1.1//EN" "http://www.w3.org/Graphics/SVG/1.1/DTD/svg11.dtd">
<svg fill="#474B53" version="1.1" id="Layer_1" xmlns="http://www.w3.org/2000/svg" xmlns:xlink="http://www.w3.org/1999/xlink" x="0px" y="0px"
	 width="250px" height="250px" viewBox="0 0 250 250" enable-background="new 0 0 250 250" xml:space="preserve">
<ellipse transform="matrix(0.9973 -0.0728 0.0728 0.9973 -5.8354 4.1287)" cx="53.712" cy="82.104" rx="52.248" ry="21.983"/>
<g>
	<path d="M21.015,128.362c2.426,0.075,2.221,2.251,1.825,3.671c1.019-0.626,1.701-2.809,1.701-4.089
		c0-1.964-1.599-3.556-3.571-3.556c-1.972,0-3.571,1.592-3.571,3.556c0,0.869,0.314,2.729,0.835,3.347
		C18.692,130.129,19.629,128.319,21.015,128.362z"/>
	<path d="M17.646,132.903c-3.561-4.703-6.315-16.128-7.148-19.872c-5.579-3.125-9.558-7.05-11.344-11.551l17.741,73.763
		c1.865,4.657,5.204,8.384,9.921,11.167c-1.556-6.869-3.431-14.465-4.646-20.16C19.953,155.855,15.3,139.683,17.646,132.903z"/>
	<path d="M82.162,115.915c-7.353,2.168-15.725,3.655-24.681,4.506c-9.051,0.86-17.705,0.606-25.472-0.565
		c-1.785,4.275-5.943,13.224-10.085,14.848c-2.092,7.422,0.771,16.26,3.378,28.118c1.748,7.946,4.14,17.736,5.385,25.529
		c7.631,3.244,17.951,4.603,30.696,4.032c13.785-0.618,23.507-3.686,30.36-7.619c-0.105-8.183,1.311-19.578,1.939-28.602
		c1.065-15.307,2.619-19.589,0.015-27.172C89.835,128.157,85.053,120.916,82.162,115.915z"/>
	<path d="M237.894,109.611c-1.315,4.722-4.617,14.864-8.4,19.608c2.104,7.531-4.325,25.555-7.402,36.737
		c-1.875,6.82-4.791,16.151-7.048,24.137c7.372-3.315,12.092-8.03,14.163-13.341c1.83-4.689,21.325-80.179,21.325-80.179
		C248.616,101.633,244.171,106.071,237.894,109.611z"/>
	<path d="M223.789,128.405c-0.463-1.503-0.953-4.395,2.148-4.342c1.773,0.028,2.567,1.901,2.905,3.2
		c0.433-0.604,0.697-2.398,0.721-3.193c0.068-2.142-1.619-3.933-3.771-4c-2.149-0.067-3.947,1.613-4.016,3.754
		C221.729,125.33,222.551,127.723,223.789,128.405z"/>
	<path d="M145.383,124.434c-3.147-5.062-4.956-15.955-5.761-22.064c-6.082-4.637-10.056-9.949-11.185-15.494l2.749,32.199
		l-21.374,1.134c0.82-15.557,1.393-28.714,1.393-28.714c-0.83,5.378-3.638,9.968-7.987,13.819
		c-0.663,5.34-2.356,16.414-5.456,21.318c2.638,9.869,0.137,22.716-0.48,32.464c-0.415,6.555-1.305,15.62-1.835,23.271
		c5.595-4.085,8.712-8.693,10.425-12.388c0.632-1.361,1.36-8.887,2.072-18.779l26.14,1.818l1.271,14.889
		c0.829,6.106,5.894,12.598,14.343,17.699c-0.875-8.382-1.865-18.383-2.58-25.598C146.062,149.338,142.807,135.325,145.383,124.434z
		"/>
	<path d="M149.701,119.748c2.256,0.703,1.873,2.813,1.345,3.915c-0.078,0.2-0.153,0.396-0.227,0.592
		c1.551-0.512,2.672-3.029,2.672-4.745c0-2.143-1.745-3.88-3.896-3.88s-3.896,1.737-3.896,3.88c0,0.558,0.121,2.149,0.333,2.629
		c0.05-0.149,0.096-0.303,0.148-0.45C146.18,121.688,147.078,118.93,149.701,119.748z"/>
	<path d="M224.607,131.268c-4.197-1.516-8.626-9.021-10.963-13.955c-8.072,1.236-17.001,1.578-26.333,0.84
		c-9.061-0.718-17.585-2.381-25.193-4.756c-3.185,5.429-8.199,12.836-12.27,13.692c-2.524,8.338-0.668,12.963,1.084,29.58
		c1.036,9.84,3.03,22.249,3.224,31.181c8.044,3.988,18.155,6.744,29.345,7.135c11.061,0.387,20.142-0.886,27.269-3.292
		c1.73-8.717,5.328-20.36,7.952-29.669C222.264,149.456,226.188,139.401,224.607,131.268z"/>
	<path d="M92.677,126.343c-0.057-0.135-0.114-0.271-0.173-0.407c-0.521-0.991-0.94-2.912,1.103-3.63
		c2.376-0.834,3.29,1.662,3.29,1.662c0.084,0.214,0.161,0.433,0.239,0.65c0.243-0.48,0.383-2.085,0.383-2.659
		c0-1.964-1.599-3.556-3.57-3.556c-1.972,0-3.571,1.592-3.571,3.556C90.377,123.477,91.333,125.832,92.677,126.343z"/>
</g>
<ellipse transform="matrix(-0.9978 -0.067 0.067 -0.9978 377.006 164.7582)" cx="191.267" cy="76.054" rx="57.947" ry="24.382"/>
</svg>
