<?xml version="1.0" encoding="utf-8"?>
<!-- Generator: Adobe Illustrator 16.0.0, SVG Export Plug-In . SVG Version: 6.00 Build 0)  -->
<!DOCTYPE svg PUBLIC "-//W3C//DTD SVG 1.1//EN" "http://www.w3.org/Graphics/SVG/1.1/DTD/svg11.dtd">
<svg version="1.1" xmlns="http://www.w3.org/2000/svg" xmlns:xlink="http://www.w3.org/1999/xlink" x="0px" y="0px" width="250px"
	 height="250px" viewBox="0 0 250 250" enable-background="new 0 0 250 250" xml:space="preserve">
<g id="Layer_1">
	<g>
		<path fill="none" d="M75.429,85.128c-11.867,0-21.487,9.62-21.487,21.488c0,11.867,9.62,21.486,21.487,21.486
			s21.486-9.619,21.486-21.486C96.916,94.748,87.297,85.128,75.429,85.128z M93.274,106.614c0,9.855-7.99,17.847-17.846,17.847
			c-9.856,0-17.845-7.99-17.845-17.847c0-9.855,7.989-17.846,17.845-17.846c2.325,0,4.543,0.449,6.58,1.258
			c-1.757,1.065-2.937,2.992-2.937,5.197c0,3.359,2.723,6.082,6.083,6.082c2.545,0,4.724-1.564,5.629-3.783
			C92.364,100.187,93.274,103.294,93.274,106.614z"/>
		<path fill="none" d="M168,85.128c-11.866,0-21.486,9.62-21.486,21.488c0,11.867,9.62,21.486,21.486,21.486
			c11.867,0,21.487-9.619,21.487-21.486C189.487,94.748,179.867,85.128,168,85.128z M185.845,106.614
			c0,9.855-7.988,17.847-17.845,17.847c-9.857,0-17.847-7.99-17.847-17.847c0-9.855,7.989-17.846,17.847-17.846
			c2.323,0,4.541,0.449,6.578,1.258c-1.759,1.065-2.937,2.992-2.937,5.197c0,3.359,2.723,6.082,6.082,6.082
			c2.545,0,4.724-1.564,5.631-3.783C184.935,100.187,185.845,103.294,185.845,106.614z"/>
		<path fill="#2A2D30" d="M249.217,190.381c-8.669-8.774-18.9-16.546-30.133-22.002c3.875-4.607,6.811-9.604,8.508-14.966
			c0.236-0.752,0.444-1.52,0.634-2.295c5.414,1.855,10.658,4.225,15.66,6.976c2.144,1.179,4.057-2.096,1.913-3.272
			c-5.412-2.978-11.054-5.45-16.876-7.392c3.918-27.768-18.945-66.821-18.945-66.821c1.419-8.221,16.063-48.33,1.062-55.867
			c-13.221-6.643-44.043,16.519-50.719,28.449c-12.67-4.098-23.24-4.806-35.768-4.346c-12.529-0.459-23.099,0.249-35.769,4.346
			c-6.676-11.931-37.499-35.09-50.718-28.449c-15.001,7.537-0.355,47.646,1.063,55.867c0,0-22.98,39.255-18.916,67.034
			c-5.539,1.925-10.903,4.367-16.016,7.179c-2.143,1.18-0.229,4.452,1.914,3.273c4.787-2.632,9.747-4.844,14.857-6.63
			c0.166,0.658,0.344,1.312,0.546,1.948c1.735,5.481,4.759,10.581,8.763,15.272c-10.982,5.438-20.992,13.087-29.497,21.695
			c-1.719,1.74,0.962,4.423,2.681,2.681c8.476-8.579,18.483-16.184,29.48-21.459c20.637,21.162,61.448,33.206,91.407,33.08
			c0.067,0.001,0.135,0,0.203,0.001c0.066-0.001,0.136,0,0.203-0.001c30.097,0.127,71.146-12.027,91.69-33.372
			c11.236,5.284,21.456,13.015,30.087,21.751C248.255,194.804,250.937,192.122,249.217,190.381z"/>
	</g>
	<path fill="#FC79E0" d="M131.366,142.192c-2.273-2.025-5.688,1.816-2.273,4.471c3.412,2.654-3.036,5.309-6.068,5.689h-0.408
		c-3.034-0.381-9.479-3.033-6.066-5.689c3.413-2.654,0-6.496-2.275-4.471c-6.333,5.637-12.937-3.207-4.171-9.48
		c6.446-4.613,19.719-5.438,25.436,0C143.364,140.155,137.7,147.829,131.366,142.192z"/>
</g>
<g id="Layer_2">
	<circle fill="#41B823" cx="75.099" cy="106.565" r="21.626"/>
	<circle fill="#2A2D30" cx="75.099" cy="106.565" r="17.961"/>
	<circle fill="#FFFFFF" cx="84.887" cy="95.101" r="6.121"/>
	<circle fill="#41B823" cx="168.266" cy="106.565" r="21.626"/>
	<circle fill="#2A2D30" cx="168.266" cy="106.565" r="17.961"/>
	<circle fill="#FFFFFF" cx="178.054" cy="95.101" r="6.122"/>
</g>
</svg>
