<?xml version="1.0" encoding="utf-8"?>
<!-- Generator: Adobe Illustrator 16.0.0, SVG Export Plug-In . SVG Version: 6.00 Build 0)  -->
<!DOCTYPE svg PUBLIC "-//W3C//DTD SVG 1.1//EN" "http://www.w3.org/Graphics/SVG/1.1/DTD/svg11.dtd">
<svg fill="#474B53" version="1.1" id="Layer_1" xmlns="http://www.w3.org/2000/svg" xmlns:xlink="http://www.w3.org/1999/xlink" x="0px" y="0px"
	 width="250px" height="250px" viewBox="387 195 250 250" enable-background="new 387 195 250 250" xml:space="preserve">
<g>
	<path fill="none" d="M462.198,282.791c-11.867,0-21.487,9.62-21.487,21.488c0,11.867,9.62,21.487,21.487,21.487
		s21.487-9.62,21.487-21.487C483.686,292.411,474.066,282.791,462.198,282.791z M480.044,304.278c0,9.855-7.99,17.846-17.846,17.846
		c-9.856,0-17.845-7.99-17.845-17.846c0-9.856,7.99-17.846,17.845-17.846c2.325,0,4.543,0.449,6.58,1.257
		c-1.757,1.066-2.936,2.992-2.936,5.198c0,3.359,2.723,6.082,6.083,6.082c2.545,0,4.723-1.564,5.629-3.783
		C479.134,297.849,480.044,300.957,480.044,304.278z"/>
	<path fill="none" d="M554.77,282.791c-11.867,0-21.487,9.62-21.487,21.488c0,11.867,9.62,21.487,21.487,21.487
		s21.487-9.62,21.487-21.487C576.257,292.411,566.637,282.791,554.77,282.791z M572.614,304.278c0,9.855-7.988,17.846-17.845,17.846
		s-17.846-7.99-17.846-17.846c0-9.856,7.989-17.846,17.846-17.846c2.324,0,4.542,0.449,6.579,1.257
		c-1.759,1.066-2.937,2.992-2.937,5.198c0,3.359,2.723,6.082,6.082,6.082c2.545,0,4.724-1.564,5.631-3.783
		C571.704,297.849,572.614,300.957,572.614,304.278z"/>
	<path d="M564.494,298.97c-3.359,0-6.082-2.723-6.082-6.082c0-2.206,1.178-4.131,2.936-5.198c-2.037-0.809-4.255-1.257-6.579-1.257
		c-9.856,0-17.846,7.989-17.846,17.846c0,9.855,7.99,17.846,17.846,17.846c9.856,0,17.846-7.99,17.846-17.846
		c0-3.322-0.91-6.43-2.49-9.093C569.217,297.404,567.039,298.97,564.494,298.97z"/>
	<path d="M635.986,388.044c-8.669-8.774-18.9-16.546-30.132-22.002c3.874-4.607,6.81-9.604,8.507-14.966
		c0.237-0.752,0.445-1.519,0.634-2.295c5.414,1.856,10.658,4.225,15.66,6.976c2.144,1.179,4.057-2.096,1.913-3.273
		c-5.412-2.977-11.053-5.45-16.876-7.391c3.918-27.768-18.945-66.821-18.945-66.821c1.419-8.221,16.064-48.331,1.063-55.868
		c-13.221-6.642-44.043,16.519-50.719,28.45c-12.67-4.098-23.24-4.806-35.768-4.346c-12.529-0.459-23.098,0.249-35.768,4.346
		c-6.676-11.931-37.499-35.091-50.718-28.45c-15.001,7.537-0.356,47.647,1.063,55.868c0,0-22.98,39.254-18.916,67.034
		c-5.539,1.924-10.903,4.367-16.015,7.178c-2.143,1.18-0.229,4.453,1.914,3.274c4.787-2.632,9.747-4.844,14.857-6.63
		c0.166,0.658,0.344,1.311,0.546,1.948c1.735,5.482,4.759,10.581,8.763,15.273c-10.983,5.438-20.992,13.087-29.497,21.695
		c-1.719,1.74,0.961,4.423,2.681,2.681c8.475-8.579,18.483-16.184,29.48-21.459c20.637,21.162,61.448,33.206,91.407,33.08
		c0.067,0.001,0.135,0,0.203,0.001c0.067-0.001,0.136,0,0.203-0.001c30.097,0.127,71.146-12.028,91.691-33.372
		c11.236,5.284,21.456,13.014,30.087,21.751C635.024,392.467,637.706,389.785,635.986,388.044z M462.198,325.766
		c-11.867,0-21.487-9.62-21.487-21.487c0-11.868,9.62-21.488,21.487-21.488s21.487,9.62,21.487,21.488
		C483.686,316.146,474.066,325.766,462.198,325.766z M517.801,339.652c-2.274-2.025-5.688,1.817-2.274,4.472
		c3.412,2.654-3.034,5.309-6.067,5.688h-0.408c-3.034-0.379-9.48-3.033-6.067-5.688c3.413-2.654,0-6.497-2.275-4.472
		c-6.333,5.637-12.937-3.207-4.171-9.48c6.446-4.612,19.719-5.438,25.436,0C529.798,337.616,524.135,345.289,517.801,339.652z
		 M554.77,325.766c-11.867,0-21.487-9.62-21.487-21.487c0-11.868,9.62-21.488,21.487-21.488s21.487,9.62,21.487,21.488
		C576.257,316.146,566.637,325.766,554.77,325.766z"/>
	<path d="M471.924,298.97c-3.359,0-6.082-2.723-6.082-6.082c0-2.206,1.178-4.131,2.936-5.198c-2.037-0.809-4.254-1.257-6.579-1.257
		c-9.856,0-17.846,7.989-17.846,17.846c0,9.855,7.99,17.846,17.846,17.846s17.846-7.99,17.846-17.846c0-3.321-0.91-6.43-2.491-9.093
		C476.647,297.404,474.469,298.97,471.924,298.97z"/>
</g>
</svg>
