<?xml version="1.0" encoding="utf-8"?>
<!-- Generator: Adobe Illustrator 16.0.0, SVG Export Plug-In . SVG Version: 6.00 Build 0)  -->
<!DOCTYPE svg PUBLIC "-//W3C//DTD SVG 1.1//EN" "http://www.w3.org/Graphics/SVG/1.1/DTD/svg11.dtd">
<svg version="1.1" id="Layer_2" xmlns="http://www.w3.org/2000/svg" xmlns:xlink="http://www.w3.org/1999/xlink" x="0px" y="0px"
	 width="250px" height="250px" viewBox="0 0 250 250" enable-background="new 0 0 250 250" xml:space="preserve">
<path fill="#CDAC79" d="M136.109,21.59c-6.459,1.106-10.797,7.239-9.689,13.697c0.092,0.544,0.225,1.071,0.385,1.584L2.324,111.914
	c-2.104,3.126,1.233,7.201,3.928,6.068l123.275-76.507c2.635,2.756,6.547,4.195,10.589,3.503c6.458-1.106,10.796-7.239,9.69-13.697
	C148.7,24.823,142.566,20.484,136.109,21.59z"/>
<path fill="#474B53" d="M243.902,39.803c0.924-5.282,1.524-11.83-0.498-14.297c-2.129-2.594-32.846-8.704-39.252-6.707
	c-5.006,1.56-11.963,7.967-11.963,7.967l0,0c-2.979,0.004-5.246,0.314-6.363,1.044C182.63,29.899,63.972,149.389,64.581,156.867
	c-2.23,5.512,25.007,31.66,35.869,41.162c8.906,7.793,59.646,32.115,79.768,37.445c4.962,2.016,8.411,2.721,9.716,1.649
	c9.172-7.522,58.609-184.478,58.404-189.219C248.223,45.248,246.331,42.307,243.902,39.803z M207.732,25.971
	c4.125-1.324,23.777,2.334,25.121,3.974c0.614,0.748,0.83,2.102,0.822,3.681c-6.464-1.844-18.734-4.472-29.338-5.88
	C205.475,26.99,206.673,26.312,207.732,25.971z M176.875,211.715c-7.675-9.357-8.426-10.275-21.705-18.361l82.225-155.239
	c0,0,3.821,0.545,6.139,4.169L176.875,211.715z"/>
<path fill="#2A2D30" d="M167.768,205.606c-5.031-5.561-24.899-16.574-50.619-28.062c-21.637-9.662-41.879-17.141-49.246-18.271
	c0.482,0.941,1.344,2.352,2.886,4.404c1.973,2.621,5.057,6.291,9.88,11.375c7.295,7.688,16.133,16.004,21.655,20.836
	c4.462,3.904,21.783,13.193,41.184,22.086c5.983,2.742,11.628,5.205,16.762,7.322c12.697,5.238,22.252,8.365,25.924,8.373
	c0.523-1.781-0.579-4.975-3.183-9.133C180.09,219.864,175.389,214.026,167.768,205.606z"/>
</svg>
