<?xml version="1.0" encoding="utf-8"?>
<!-- Generator: Adobe Illustrator 16.0.0, SVG Export Plug-In . SVG Version: 6.00 Build 0)  -->
<!DOCTYPE svg PUBLIC "-//W3C//DTD SVG 1.1//EN" "http://www.w3.org/Graphics/SVG/1.1/DTD/svg11.dtd">
<svg fill="#ffffff" version="1.1" id="Layer_2" xmlns="http://www.w3.org/2000/svg" xmlns:xlink="http://www.w3.org/1999/xlink" x="0px" y="0px"
	 width="250px" height="250px" viewBox="0 0 250 250" enable-background="new 0 0 250 250" xml:space="preserve">
<path d="M136.109,21.59c-6.458,1.106-10.797,7.239-9.689,13.697c0.092,0.544,0.224,1.071,0.385,1.584L2.324,111.914
	c-2.104,3.126,1.233,7.201,3.928,6.068l123.275-76.507c2.635,2.756,6.547,4.195,10.589,3.503c6.458-1.106,10.796-7.239,9.69-13.697
	C148.7,24.823,142.567,20.484,136.109,21.59z"/>
<path d="M243.903,39.803c0.923-5.282,1.524-11.83-0.499-14.297c-2.128-2.594-32.845-8.704-39.252-6.707
	c-5.005,1.56-11.963,7.967-11.963,7.967v0c-2.979,0.004-5.245,0.314-6.363,1.044C182.63,29.899,63.972,149.389,64.581,156.867
	c-2.23,5.512,25.007,31.66,35.869,41.162c8.906,7.793,59.646,32.115,79.768,37.445c4.961,2.016,8.411,2.721,9.716,1.65
	c9.172-7.523,58.609-184.478,58.404-189.219C248.223,45.248,246.331,42.307,243.903,39.803z M207.733,25.971
	c4.124-1.324,23.777,2.334,25.121,3.974c0.614,0.748,0.83,2.102,0.822,3.681c-6.464-1.844-18.735-4.472-29.338-5.88
	C205.474,26.99,206.673,26.312,207.733,25.971z M186.193,233.668c-3.672-0.008-13.226-3.135-25.923-8.373
	c-5.134-2.117-10.779-4.58-16.762-7.322c-19.401-8.893-36.722-18.182-41.184-22.086c-5.522-4.832-14.36-13.148-21.655-20.836
	c-4.823-5.084-7.907-8.754-9.88-11.375c-1.542-2.053-2.404-3.463-2.886-4.404c7.367,1.131,27.609,8.609,49.246,18.271
	c25.719,11.488,45.587,22.502,50.618,28.062c7.622,8.42,12.323,14.258,15.244,18.93
	C185.614,228.693,186.717,231.887,186.193,233.668z M176.875,211.715c-7.675-9.357-8.426-10.275-21.705-18.361l82.224-155.24
	c0,0,3.822,0.545,6.139,4.169L176.875,211.715z"/>
</svg>
