<?xml version="1.0" encoding="utf-8"?>
<!-- Generator: Adobe Illustrator 16.0.0, SVG Export Plug-In . SVG Version: 6.00 Build 0)  -->
<!DOCTYPE svg PUBLIC "-//W3C//DTD SVG 1.1//EN" "http://www.w3.org/Graphics/SVG/1.1/DTD/svg11.dtd">
<svg version="1.1" id="Layer_1" xmlns="http://www.w3.org/2000/svg" xmlns:xlink="http://www.w3.org/1999/xlink" x="0px" y="0px"
	 width="250px" height="175.359px" viewBox="0 36.32 250 175.359" enable-background="new 0 36.32 250 175.359"
	 xml:space="preserve">
<path fill="#231F20" d="M53.682,112.932c7.051-0.273,17.072-5.909,20.48-11.562c8.615-14.295,29.448-24.449,34.362-17.06
	c5.192,7.806-20.218,12.794-11.489,26.663c3.69,5.862,11.536,0.888,11.536,0.888c3.454,6.195-6.181,5.942-0.434,20.646
	c0,0-10.733,5.801-5.799,12.103c3.523,4.497,19.469-3.429,22.382,4.15c5.149,13.398-17.975,12.21-25.931,18.247
	c-7.175,5.443-9.887,27.505-30.746,40.325c0,0-26.324,20.176-55.835-26.399C1.235,163.614-2.72,148.446,1.896,137.51
	C9.633,120.258,25.163,114.036,53.682,112.932z"/>
<g>
	<path fill="#8D96A4" d="M229.924,39.858c0.288,1.131-0.259,2.25-1.223,2.495l-1.691,0.432c-0.963,0.245-1.979-0.475-2.266-1.607
		l0,0c-0.29-1.132,0.258-2.25,1.221-2.496l1.691-0.43C228.62,38.005,229.636,38.725,229.924,39.858L229.924,39.858z"/>
	<path fill="#8D96A4" d="M237.312,37.975c0.288,1.132-0.259,2.249-1.223,2.496l-1.691,0.431c-0.964,0.246-1.979-0.474-2.269-1.606
		l0,0c-0.288-1.132,0.261-2.251,1.224-2.496l1.69-0.431C236.007,36.123,237.021,36.843,237.312,37.975L237.312,37.975z"/>
	<path fill="#8D96A4" d="M215.15,43.622c0.288,1.133-0.26,2.25-1.224,2.496l-1.689,0.431c-0.964,0.246-1.979-0.474-2.268-1.606l0,0
		c-0.287-1.133,0.257-2.25,1.223-2.496l1.69-0.431C213.847,41.77,214.86,42.489,215.15,43.622L215.15,43.622z"/>
	<path fill="#8D96A4" d="M222.537,41.74c0.289,1.132-0.258,2.25-1.223,2.496l-1.691,0.432c-0.963,0.245-1.979-0.475-2.267-1.607l0,0
		c-0.288-1.133,0.259-2.25,1.223-2.497l1.69-0.431C221.232,39.888,222.247,40.607,222.537,41.74L222.537,41.74z"/>
	<path fill="#8D96A4" d="M200.375,47.387c0.289,1.133-0.258,2.249-1.221,2.496l-1.69,0.431c-0.964,0.246-1.979-0.475-2.269-1.607
		l0,0c-0.288-1.132,0.259-2.25,1.223-2.496l1.691-0.43C199.072,45.534,200.088,46.255,200.375,47.387L200.375,47.387z"/>
	<path fill="#8D96A4" d="M207.764,45.505c0.288,1.132-0.26,2.249-1.223,2.495l-1.69,0.431c-0.965,0.245-1.979-0.474-2.269-1.606l0,0
		c-0.288-1.132,0.258-2.25,1.223-2.496l1.69-0.431C206.458,43.652,207.475,44.372,207.764,45.505L207.764,45.505z"/>
</g>
<path fill="#FFFFFF" d="M121.931,152.603c-2.85-11.181-20.796,8.043-30.557-13.396c-4.78-10.498,5.588-20.209-0.41-27.188
	c-3.335-3.881-9.577,4.571-18.846,10.057c-7.403,4.381-17.737,3.228-25.891,10.562c-6.91,6.215-6.572,12.638-3.629,18.827
	l5.453-3.454l10.795,17.037l-4.79,3.034c1.531,2.206,2.757,4.301,3.353,6.254c3.409,11.186,2.145,26.605,11.908,22.94
	c9.763-3.666,16.676-25.93,25.447-31.991C100.786,161.122,123.278,157.891,121.931,152.603z"/>
<circle fill="#231F20" cx="66.812" cy="188.627" r="3.886"/>
<path fill="#231F20" d="M68.609,176.082c-0.245,2.132-2.172,3.661-4.304,3.418c-2.132-0.248-3.662-2.174-3.417-4.306
	c0.245-2.131,2.172-3.66,4.304-3.416C67.324,172.024,68.854,173.951,68.609,176.082z"/>
<g>
	<path fill="#CDAC79" d="M214.742,75.983c2.712-0.691,12.106-11.722,17.71-15.069c6.997-4.179,9.146,3.086,14.243-2.982
		c6.781-8.078-0.867-15.42-9.068-13.002l-40.598,10.548c-3.927,1.674-2.494,6.482-4.682,8.069
		C191.045,64.491,84.3,125.894,84.3,125.894c-7.092,4.145,2.385,20.102,9.224,16.762l106.395-69.809
		C203.581,70.906,212.03,76.672,214.742,75.983z"/>
</g>
</svg>
