<?xml version="1.0" encoding="utf-8"?>
<!-- Generator: Adobe Illustrator 16.0.0, SVG Export Plug-In . SVG Version: 6.00 Build 0)  -->
<!DOCTYPE svg PUBLIC "-//W3C//DTD SVG 1.1//EN" "http://www.w3.org/Graphics/SVG/1.1/DTD/svg11.dtd">
<svg fill="#474B53" version="1.1" id="Layer_1" xmlns="http://www.w3.org/2000/svg" xmlns:xlink="http://www.w3.org/1999/xlink" x="0px" y="0px"
	 width="250px" height="250px" viewBox="0 0 250 250" enable-background="new 0 0 250 250" xml:space="preserve">
<g>
	<path d="M227.544,43.387l1.697-0.433c0.966-0.246,1.516-1.368,1.226-2.503c-0.29-1.137-1.308-1.859-2.275-1.612l-1.696,0.432
		c-0.967,0.246-1.517,1.368-1.227,2.504C225.558,42.911,226.576,43.633,227.544,43.387z"/>
	<path d="M234.956,41.498l1.697-0.432c0.967-0.247,1.515-1.369,1.227-2.505c-0.291-1.136-1.309-1.858-2.275-1.612l-1.698,0.433
		c-0.965,0.246-1.516,1.368-1.227,2.505C232.971,41.022,233.988,41.744,234.956,41.498z"/>
	<path d="M212.718,47.164l1.698-0.432c0.967-0.246,1.516-1.367,1.226-2.504c-0.289-1.137-1.308-1.858-2.275-1.612l-1.696,0.433
		c-0.967,0.246-1.515,1.368-1.226,2.504C210.733,46.689,211.752,47.411,212.718,47.164z"/>
	<path d="M220.132,45.276l1.696-0.433c0.967-0.246,1.518-1.368,1.227-2.504c-0.289-1.136-1.308-1.858-2.275-1.611l-1.696,0.432
		c-0.968,0.247-1.516,1.368-1.227,2.505C218.146,44.8,219.164,45.522,220.132,45.276z"/>
	<path d="M197.894,50.942l1.697-0.432c0.967-0.247,1.516-1.368,1.228-2.504c-0.291-1.136-1.31-1.859-2.275-1.612l-1.697,0.432
		c-0.968,0.247-1.516,1.368-1.227,2.504S196.928,51.189,197.894,50.942z"/>
	<path d="M205.306,49.054l1.697-0.433c0.968-0.247,1.517-1.367,1.227-2.504c-0.289-1.137-1.309-1.859-2.274-1.612l-1.697,0.432
		c-0.967,0.246-1.517,1.368-1.227,2.504C203.321,48.578,204.34,49.3,205.306,49.054z"/>
	<path d="M238.196,45.541l-40.738,10.584c-3.939,1.68-2.501,6.504-4.698,8.097c-0.902,0.655-52.344,30.288-84.037,48.531
		c-0.009-0.018-0.018-0.034-0.026-0.052c0,0-7.873,4.991-11.576-0.891c-8.759-13.916,16.738-18.922,11.529-26.755
		c-4.932-7.415-25.836,2.774-34.481,17.119c-3.42,5.673-13.475,11.329-20.55,11.603C25,114.885,9.417,121.127,1.654,138.439
		c-4.633,10.974-0.664,26.194,10.347,43.571c29.612,46.736,56.027,26.492,56.027,26.492C88.959,195.639,91.68,173.5,98.88,168.037
		c7.984-6.059,31.187-4.864,26.02-18.308c-2.923-7.607-18.924,0.347-22.459-4.166c-2.488-3.178-1.006-6.229,1.084-8.476
		l96.832-63.534c3.676-1.948,12.154,3.839,14.876,3.146s12.147-11.762,17.771-15.12c7.021-4.194,9.178,3.095,14.292-2.994
		C254.102,50.481,246.426,43.113,238.196,45.541z M122.103,153.584c1.352,5.307-21.219,8.551-27.262,12.727
		c-8.802,6.08-15.737,28.422-25.534,32.1c-9.797,3.679-8.529-11.796-11.949-23.02c-0.598-1.958-1.828-4.062-3.364-6.275l4.806-3.044
		l-10.833-17.097l-5.472,3.468c-2.953-6.212-3.292-12.657,3.642-18.895c8.182-7.359,18.552-6.202,25.979-10.597
		c9.302-5.504,15.565-13.986,18.912-10.091c2.329,2.71,2.199,5.83,1.442,9.247c-5.076,2.922-8.129,4.677-8.129,4.677
		c-7.035,4.112,2.178,19.806,9.02,16.923C103.42,159.367,119.42,143.064,122.103,153.584z"/>
	<circle cx="66.793" cy="189.733" r="3.899"/>
	<circle cx="64.722" cy="176.7" r="3.899"/>
</g>
</svg>
