<?xml version="1.0" encoding="utf-8"?>
<!-- Generator: Adobe Illustrator 16.0.0, SVG Export Plug-In . SVG Version: 6.00 Build 0)  -->
<!DOCTYPE svg PUBLIC "-//W3C//DTD SVG 1.1//EN" "http://www.w3.org/Graphics/SVG/1.1/DTD/svg11.dtd">
<svg fill="#474B53" version="1.1" id="Layer_1" xmlns="http://www.w3.org/2000/svg" xmlns:xlink="http://www.w3.org/1999/xlink" x="0px" y="0px"
	 width="250px" height="250px" viewBox="0 0 250 250" enable-background="new 0 0 250 250" xml:space="preserve">
<path d="M250.179,155.812l-22.889-29.701h-0.16v-21.577h3.614l1.49-5.581h-9.134l-31.239-83.277l6.648-3.404l-3.586-6.687
	L20.292,98.954H18.9l0.174,0.652L18.9,99.698h0.199l1.291,4.836h2.905v21.825L-0.15,155.812l-0.073,6.382h6.768l10.452,82.219h7.241
	v-82.219h39.792l4.101,32.988h7.242v-32.988h150.124v82.22h7.635l10.451-82.22h6.643L250.179,155.812z M186.78,18.278l33.909,80.675
	H29.23L186.78,18.278z M244.147,155.872H6.544v-4.712h237.603V155.872z M6.544,149.921l16.75-21.206h6.901l-10.054,13.021h7.171
	l8.097-13.021h3.494l-8.75,13.021h7.171l6.047-13.021h8.812l-5.216,13.021h7.171l3.26-13.021h3.911l-3.911,13.021h7.171
	l1.955-13.021h4.237l-2.606,13.021h7.171l0.649-13.021h11.36l-2.606,13.021h7.17l0.65-13.021h4.238l-1.302,13.021h7.171
	l-0.656-13.021h11.118l-1.954,13.021h7.171l-0.003-13.021h3.911l-0.649,13.021h7.172l-1.31-13.021h4.238l0.656,13.021h7.171
	l-2.613-13.021h11.741l-0.656,13.021h7.173l-1.302-13.021h4.237l0.649,13.021h7.171l-2.605-13.021h11.396l0.65,13.021h7.17
	l-2.606-13.021h4.238l1.954,13.021h7.172l-3.912-13.021h3.912l3.258,13.021h7.172l-5.216-13.021h9.275l6.048,13.021h7.17
	l-8.748-13.021h3.493l8.097,13.021h7.17l-10.054-13.021h6.438l16.75,21.206H6.544z"/>
</svg>
