<?xml version="1.0" encoding="utf-8"?>
<!-- Generator: Adobe Illustrator 16.0.0, SVG Export Plug-In . SVG Version: 6.00 Build 0)  -->
<!DOCTYPE svg PUBLIC "-//W3C//DTD SVG 1.1//EN" "http://www.w3.org/Graphics/SVG/1.1/DTD/svg11.dtd">
<svg version="1.1" id="Layer_1" xmlns="http://www.w3.org/2000/svg" xmlns:xlink="http://www.w3.org/1999/xlink" x="0px" y="0px"
	 width="250px" height="250px" viewBox="0 0 250 250" enable-background="new 0 0 250 250" xml:space="preserve">
<g>
	<polygon fill="none" points="186.779,18.278 29.23,98.953 220.689,98.953 	"/>
	<polygon fill="#FFFFFF" points="220.955,128.715 231.009,141.736 223.839,141.736 215.742,128.715 212.249,128.715 
		220.997,141.736 213.827,141.736 207.779,128.715 198.504,128.715 203.721,141.736 196.548,141.736 193.29,128.715 
		189.378,128.715 193.29,141.736 186.118,141.736 184.164,128.715 179.926,128.715 182.532,141.736 175.361,141.736 
		174.712,128.715 163.316,128.715 165.921,141.736 158.75,141.736 158.102,128.715 153.863,128.715 155.166,141.736 
		147.993,141.736 148.648,128.715 136.908,128.715 139.521,141.736 132.35,141.736 131.693,128.715 127.456,128.715 
		128.766,141.736 121.594,141.736 122.243,128.715 118.332,128.715 118.335,141.736 111.164,141.736 113.118,128.715 102,128.715 
		102.656,141.736 95.485,141.736 96.787,128.715 92.549,128.715 91.899,141.736 84.729,141.736 87.335,128.715 75.975,128.715 
		75.326,141.736 68.155,141.736 70.761,128.715 66.524,128.715 64.569,141.736 57.398,141.736 61.309,128.715 57.398,128.715 
		54.138,141.736 46.967,141.736 52.183,128.715 43.371,128.715 37.324,141.736 30.153,141.736 38.903,128.715 35.409,128.715 
		27.312,141.736 20.141,141.736 30.195,128.715 23.294,128.715 6.544,149.921 244.143,149.921 227.393,128.715 	"/>
	<path fill="#474B53" d="M250.18,155.812l-22.89-29.701h-0.16v-21.577h3.614l1.49-5.581H223.1l-31.238-83.277l6.647-3.404
		l-3.586-6.687L20.292,98.954H18.9l0.174,0.652L18.9,99.698h0.199l1.291,4.836h2.905v21.825L-0.15,155.812l-0.073,6.381h6.768
		l10.452,82.22h7.241v-82.22H64.03l4.101,32.988h7.242v-32.988h150.124v82.221h7.635l10.451-82.221h6.644L250.18,155.812z
		 M186.779,18.278l33.91,80.675H29.23L186.779,18.278z M244.143,149.921H6.544l16.75-21.206h6.901h5.214h3.494h4.468h8.812h5.215
		h3.911h5.215h4.237h5.214h11.36h5.214h4.238H102h11.118h5.214h3.911h5.213h4.237h5.215h11.74h5.215h4.238h5.215h11.396h5.214h4.238
		h5.214h3.912h5.214h9.275h4.47h3.493h5.213h6.438l16.754,21.206H244.143z"/>
	<polygon fill="#2A2D30" points="182.532,141.736 179.926,128.715 174.712,128.715 175.361,141.736 	"/>
	<polygon fill="#2A2D30" points="165.921,141.736 163.316,128.715 158.102,128.715 158.75,141.736 	"/>
	<polygon fill="#2A2D30" points="128.766,141.736 127.456,128.715 122.243,128.715 121.594,141.736 	"/>
	<polygon fill="#2A2D30" points="139.521,141.736 136.908,128.715 131.693,128.715 132.35,141.736 	"/>
	<polygon fill="#2A2D30" points="193.29,141.736 189.378,128.715 184.164,128.715 186.118,141.736 	"/>
	<polygon fill="#2A2D30" points="220.997,141.736 212.249,128.715 207.779,128.715 213.827,141.736 	"/>
	<polygon fill="#2A2D30" points="231.009,141.736 220.955,128.715 215.742,128.715 223.839,141.736 	"/>
	<polygon fill="#2A2D30" points="203.721,141.736 198.504,128.715 193.29,128.715 196.548,141.736 	"/>
	<polygon fill="#2A2D30" points="155.166,141.736 153.863,128.715 148.648,128.715 147.993,141.736 	"/>
	<polygon fill="#2A2D30" points="27.312,141.736 35.409,128.715 30.195,128.715 20.141,141.736 	"/>
	<polygon points="54.138,141.736 57.398,128.715 52.183,128.715 46.967,141.736 	"/>
	<polygon fill="#2A2D30" points="37.324,141.736 43.371,128.715 38.903,128.715 30.153,141.736 	"/>
	<polygon points="244.143,149.921 244.146,149.921 227.393,128.715 	"/>
	<polygon fill="#2A2D30" points="75.326,141.736 75.975,128.715 70.761,128.715 68.155,141.736 	"/>
	<polygon fill="#2A2D30" points="91.899,141.736 92.549,128.715 87.335,128.715 84.729,141.736 	"/>
	<polygon fill="#2A2D30" points="64.569,141.736 66.524,128.715 61.309,128.715 57.398,141.736 	"/>
	<polygon fill="#2A2D30" points="102.656,141.736 102,128.715 96.787,128.715 95.485,141.736 	"/>
	<polygon fill="#2A2D30" points="118.335,141.736 118.332,128.715 113.118,128.715 111.164,141.736 	"/>
</g>
<rect x="6.544" y="149.921" fill="#8D96A4" width="237.603" height="5.951"/>
</svg>
