<?xml version="1.0" encoding="utf-8"?>
<!-- Generator: Adobe Illustrator 16.0.0, SVG Export Plug-In . SVG Version: 6.00 Build 0)  -->
<!DOCTYPE svg PUBLIC "-//W3C//DTD SVG 1.1//EN" "http://www.w3.org/Graphics/SVG/1.1/DTD/svg11.dtd">
<svg version="1.1" id="Layer_1" xmlns="http://www.w3.org/2000/svg" xmlns:xlink="http://www.w3.org/1999/xlink" x="0px" y="0px"
	 width="250px" height="250px" viewBox="0 0 250 250" enable-background="new 0 0 250 250" xml:space="preserve">
<path fill="#CDAC79" d="M233.299,78.815H16.702c0,0-1.153-32.065,1.001-35.466c4.28-6.756,210.136-6.994,214.595,0
	C234.466,46.75,233.299,78.815,233.299,78.815z"/>
<path fill="#FF4040" d="M231.979,43.349c0,0-16.205-31.274-24.684-35.319c-6.146-2.933-157.414-2.933-163.561,0
	c-8.479,4.045-25.712,35.319-25.712,35.319S74.681,40.697,125,40.697C175.318,40.697,231.979,43.349,231.979,43.349z"/>
<circle fill="#2A2D30" cx="31.527" cy="61.584" r="5.336"/>
<circle fill="#2A2D30" cx="49.983" cy="61.584" r="5.336"/>
<path fill="#2A2D30" d="M227.375,120.452c0.699,35.143,4.152,104.017,7.38,122.769c0.147,1.32,2.804,1.229,2.946-0.055
	c2.508-18.818,3.347-87.494,2.72-122.714H227.375z M197.189,120.452c1.06,29.419,3.305,68.719,5.43,81.065
	c0.119,1.063,2.259,0.989,2.375-0.045c1.652-12.393,2.404-51.604,2.349-81.021H197.189z M44.889,120.452
	c-0.055,29.417,0.697,68.628,2.349,81.021c0.115,1.034,2.255,1.108,2.374,0.045c2.125-12.347,4.371-51.646,5.43-81.065H44.889z
	 M11.81,120.452c-0.627,35.22,0.211,103.896,2.72,122.714c0.143,1.282,2.798,1.375,2.946,0.055
	c3.227-18.752,6.681-87.625,7.38-122.769H11.81z"/>
<polygon fill="#FFFFFF" points="16.702,78.815 1.627,108.116 248.373,108.116 233.299,78.815 "/>
<polygon fill="#2A2D30" points="23.909,78.815 16.702,96.807 26.61,96.807 31.114,78.815 "/>
<polygon fill="#2A2D30" points="36.519,78.815 31.114,96.807 41.023,96.807 43.724,78.815 "/>
<polygon fill="#2A2D30" points="49.579,78.815 45.978,96.807 55.886,96.807 56.784,78.815 "/>
<polygon fill="#2A2D30" points="72.481,78.815 68.88,96.807 78.788,96.807 79.686,78.815 "/>
<polygon fill="#2A2D30" points="85.541,78.815 83.743,96.807 93.652,96.807 92.746,78.815 "/>
<polygon fill="#2A2D30" points="108.107,78.815 105.408,96.807 115.316,96.807 115.312,78.815 "/>
<polygon fill="#2A2D30" points="120.716,78.815 119.82,96.807 129.729,96.807 127.922,78.815 "/>
<polygon fill="#2A2D30" points="133.777,78.815 134.684,96.807 144.592,96.807 140.981,78.815 "/>
<polygon fill="#2A2D30" points="177.47,78.815 181.071,96.807 171.163,96.807 170.266,78.815 "/>
<polygon fill="#2A2D30" points="164.41,78.815 166.208,96.807 156.299,96.807 157.205,78.815 "/>
<polygon fill="#2A2D30" points="226.093,78.815 233.299,96.807 223.39,96.807 218.888,78.815 "/>
<polygon fill="#2A2D30" points="213.482,78.815 218.888,96.807 208.979,96.807 206.277,78.815 "/>
<polygon fill="#2A2D30" points="200.422,78.815 204.023,96.807 194.115,96.807 193.218,78.815 "/>
<rect x="1.628" y="108.115" fill="#8D96A4" width="246.745" height="12.337"/>
</svg>
