<?xml version="1.0" encoding="utf-8"?>
<!-- Generator: Adobe Illustrator 16.0.0, SVG Export Plug-In . SVG Version: 6.00 Build 0)  -->
<!DOCTYPE svg PUBLIC "-//W3C//DTD SVG 1.1//EN" "http://www.w3.org/Graphics/SVG/1.1/DTD/svg11.dtd">
<svg fill="#ffffff" version="1.1" id="Layer_1" xmlns="http://www.w3.org/2000/svg" xmlns:xlink="http://www.w3.org/1999/xlink" x="0px" y="0px"
	 width="250px" height="250px" viewBox="0 0 250 250" enable-background="new 0 0 250 250" xml:space="preserve">
<g>
	<path d="M231.978,43.349c0,0-16.205-31.274-24.683-35.319c-6.147-2.933-157.414-2.933-163.561,0
		c-8.479,4.045-25.712,35.319-25.712,35.319S74.681,40.697,125,40.697S231.978,43.349,231.978,43.349z"/>
	<circle cx="31.527" cy="61.584" r="5.336"/>
	<circle cx="49.983" cy="61.584" r="5.336"/>
	<path d="M248.372,108.115l-15.074-29.3h-7.208h-7.205h-5.405h-7.205h-5.856h-7.204h-15.748h-7.205h-5.855h-7.205h-16.224h-7.205
		h-5.856h-7.205h-5.404h-7.205H92.746h-7.205h-5.855h-7.205H56.784h-7.205h-5.855h-7.205h-5.404H23.91h-7.208l-15.074,29.3v12.337
		H11.81c-0.627,35.22,0.211,103.896,2.72,122.714c0.143,1.282,2.798,1.375,2.946,0.055c3.227-18.752,6.681-87.626,7.38-122.769
		h20.033c-0.055,29.417,0.697,68.628,2.349,81.021c0.115,1.034,2.255,1.108,2.374,0.044c2.125-12.346,4.371-51.646,5.43-81.065
		h142.148c1.059,29.419,3.304,68.719,5.429,81.065c0.119,1.064,2.259,0.99,2.375-0.044c1.652-12.393,2.404-51.604,2.349-81.021
		h20.032c0.699,35.143,4.153,104.017,7.38,122.769c0.147,1.32,2.803,1.228,2.946-0.055c2.508-18.818,3.347-87.494,2.72-122.714
		h7.952V108.115z M3.313,107.087l14.016-27.244h6.168l-6.795,16.963h9.909l4.246-16.963h5.354l-5.096,16.963h9.909l2.546-16.963
		h5.803l-3.396,16.963h9.909l0.846-16.963h15.542L68.88,96.806h9.908l0.846-16.963h5.804l-1.695,16.963h9.909l-0.854-16.963h15.156
		l-2.545,16.963h9.908l-0.003-16.963h5.353l-0.845,16.963h9.91l-1.705-16.963h5.804l0.855,16.963h9.909l-3.404-16.963h15.965
		l-0.855,16.963h9.909l-1.695-16.963h5.803l0.846,16.963h9.909l-3.396-16.963h15.593l0.846,16.963h9.909l-3.396-16.963h5.804
		l2.546,16.963h9.909l-5.096-16.963h5.354l4.245,16.963h9.91l-6.796-16.963h6.168l14.016,27.244H3.313z"/>
</g>
</svg>
