<?xml version="1.0" encoding="utf-8"?>
<!-- Generator: Adobe Illustrator 16.0.0, SVG Export Plug-In . SVG Version: 6.00 Build 0)  -->
<!DOCTYPE svg PUBLIC "-//W3C//DTD SVG 1.1//EN" "http://www.w3.org/Graphics/SVG/1.1/DTD/svg11.dtd">
<svg fill="#ffffff" version="1.1" id="Layer_1" xmlns="http://www.w3.org/2000/svg" xmlns:xlink="http://www.w3.org/1999/xlink" x="0px" y="0px"
	 width="250px" height="250px" viewBox="0 0 250 250" enable-background="new 0 0 250 250" xml:space="preserve">
<g>
	<path d="M182.831,86.19c-4.089,0-7.402,3.135-7.402,7.001v34.145c0,28.055-22.741,50.797-50.796,50.797
		c-28.054,0-50.796-22.742-50.796-50.797V93.191c0-3.867-3.314-7.001-7.403-7.001c-4.089,0-7.403,3.135-7.403,7.001v35.256
		c0,0.116,0.012,0.229,0.018,0.344c0.721,33.121,25.989,60.183,58.336,63.738v31.681c-22.518,0.977-39.755,6.433-39.755,13.019
		c0,7.276,21.044,13.175,47.003,13.175c25.958,0,47.003-5.898,47.003-13.175c0-6.586-17.237-12.042-39.756-13.019v-31.681
		c32.347-3.556,57.615-30.617,58.336-63.738c0.006-0.115,0.019-0.228,0.019-0.344V93.191C190.234,89.325,186.92,86.19,182.831,86.19
		z"/>
	<path d="M124.633,167.32c21.514,0,39.152-16.543,40.919-37.602h0.154V92.223c-6.711-1.621-20.404-4.121-41.073-4.121
		s-34.363,2.5-41.073,4.121v37.496h0.156C85.48,150.777,103.119,167.32,124.633,167.32z"/>
	<path d="M165.706,77.606V40.629c0-22.684-18.389-41.073-41.073-41.073c-22.684,0-41.073,18.39-41.073,41.073v36.977
		c8.469-1.303,26.485-3.781,41.073-3.781C139.221,73.825,157.236,76.303,165.706,77.606z M145.338,22.858
		c2.758,0,4.996,2.238,4.996,4.998s-2.238,4.999-4.996,4.999c-2.762,0-5-2.238-5-4.999S142.576,22.858,145.338,22.858z
		 M145.338,42.851c2.758,0,4.996,2.238,4.996,4.999c0,2.76-2.238,4.999-4.996,4.999c-2.762,0-5-2.238-5-4.999
		C140.338,45.089,142.576,42.851,145.338,42.851z M124.418,12.862c2.761,0,4.997,2.238,4.997,4.998s-2.236,4.998-4.997,4.998
		c-2.76,0-4.999-2.238-4.999-4.998S121.658,12.862,124.418,12.862z M103.929,52.848c-2.76,0-4.998-2.238-4.998-4.999
		c0-2.761,2.238-4.999,4.998-4.999c2.76,0,4.998,2.238,4.998,4.999C108.927,50.61,106.689,52.848,103.929,52.848z M103.929,32.855
		c-2.76,0-4.998-2.238-4.998-4.999s2.238-4.998,4.998-4.998c2.76,0,4.998,2.238,4.998,4.998S106.689,32.855,103.929,32.855z
		 M119.419,37.854c0-2.761,2.239-4.999,4.999-4.999c2.761,0,4.997,2.238,4.997,4.999s-2.236,4.998-4.997,4.998
		C121.658,42.851,119.419,40.614,119.419,37.854z"/>
</g>
</svg>
