<?xml version="1.0" encoding="utf-8"?>
<!-- Generator: Adobe Illustrator 16.0.0, SVG Export Plug-In . SVG Version: 6.00 Build 0)  -->
<!DOCTYPE svg PUBLIC "-//W3C//DTD SVG 1.1//EN" "http://www.w3.org/Graphics/SVG/1.1/DTD/svg11.dtd">
<svg version="1.1" id="Layer_1" xmlns="http://www.w3.org/2000/svg" xmlns:xlink="http://www.w3.org/1999/xlink" x="0px" y="0px"
	 width="250px" height="250px" viewBox="0 0 250 250" enable-background="new 0 0 250 250" xml:space="preserve">
<text transform="matrix(1 0 0 1 56.709 248.999)" font-family="'FiraSans-Regular'" font-size="16">Hold “R” to Record</text>
<g>
	<path fill="#474B53" d="M89.084,82.03v32.787h0.137c1.542,18.414,16.966,32.878,35.778,32.878
		c18.812,0,34.235-14.467,35.778-32.878h0.138V82.031c-5.867-1.417-17.842-3.604-35.916-3.604
		C106.927,78.427,94.952,80.613,89.084,82.03z"/>
	<path fill="#474B53" d="M125,1.001c-19.836,0-35.916,16.08-35.916,35.915v32.333c7.406-1.14,23.16-3.306,35.916-3.306
		c12.757,0,28.512,2.167,35.916,3.306V36.916C160.916,17.081,144.836,1.001,125,1.001z"/>
	<path fill="#8D96A4" d="M89.084,69.249V82.03c5.868-1.417,17.842-3.603,35.916-3.603s30.049,2.186,35.916,3.604V69.249
		c-7.404-1.139-23.159-3.306-35.916-3.306C112.244,65.943,96.49,68.109,89.084,69.249z"/>
</g>
<path fill="#8D96A4" d="M175.889,76.754c-3.574,0-6.472,2.741-6.472,6.123v29.857c0,24.53-19.886,44.417-44.417,44.417
	c-24.531,0-44.417-19.887-44.417-44.417V82.877c0-3.381-2.898-6.123-6.474-6.123c-3.575,0-6.473,2.741-6.473,6.123v30.828
	c0,0.102,0.011,0.201,0.016,0.301c0.63,28.961,22.726,52.625,51.01,55.735v27.7c-19.69,0.854-34.763,5.627-34.763,11.384
	c0,6.362,18.401,11.521,41.101,11.521c22.698,0,41.102-5.158,41.102-11.521c0-5.759-15.074-10.528-34.766-11.384v-27.7
	c28.285-3.109,50.382-26.774,51.014-55.735c0.004-0.101,0.014-0.199,0.014-0.301V82.877
	C182.363,79.496,179.465,76.754,175.889,76.754z"/>
<g>
	<circle fill="#8D96A4" cx="143.104" cy="25.747" r="4.371"/>
	<circle fill="#8D96A4" cx="106.896" cy="25.747" r="4.37"/>
	<circle fill="#8D96A4" cx="106.896" cy="43.229" r="4.37"/>
	<circle fill="#8D96A4" cx="124.812" cy="17.006" r="4.371"/>
	<circle fill="#8D96A4" cx="124.812" cy="34.488" r="4.371"/>
	<circle fill="#8D96A4" cx="143.104" cy="43.229" r="4.371"/>
</g>
</svg>
