<?xml version="1.0" encoding="utf-8"?>
<!-- Generator: Adobe Illustrator 16.0.0, SVG Export Plug-In . SVG Version: 6.00 Build 0)  -->
<!DOCTYPE svg PUBLIC "-//W3C//DTD SVG 1.1//EN" "http://www.w3.org/Graphics/SVG/1.1/DTD/svg11.dtd">
<svg fill="#ffffff" version="1.1" id="Layer_1" xmlns="http://www.w3.org/2000/svg" xmlns:xlink="http://www.w3.org/1999/xlink" x="0px" y="0px"
	 width="250px" height="250px" viewBox="0 0 250 250" enable-background="new 0 0 250 250" xml:space="preserve">
<g>
	<path d="M45.454,54.822c17.45-5.635,33.125-6.215,41.876-5.944c-13.728-18.067-33.286-28.759-51.214-22.97
		C18.172,31.704,8.56,51.846,8.008,74.553C15.037,69.184,28.264,60.374,45.454,54.822z"/>
	<path d="M10.629,98.2c0.5,2.02,1.069,4.028,1.712,6.018c1.422,4.403,3.513,8.525,6.044,12.353
		c6.08-4.665,20.65-14.754,40.205-21.069c19.907-6.429,37.362-6.72,44.933-6.455c-0.188-4.575-0.902-9.131-2.321-13.525
		c-0.632-1.958-1.333-3.889-2.094-5.79c-5.568-0.877-21.428-2.085-46.86,6.128C25.898,84.369,14.422,94.243,10.629,98.2z"/>
	<path d="M65.768,117.726c-15.287,4.937-25.437,10.737-31.973,15.612c10.666,8.91,21.886,14.678,26.367,16.945
		c0.11,0.057,0.225,0.111,0.332,0.166c9.062,4.639,12.388,14.236,16.55,27.125c4.186,12.961,3.346,27.246,7.513,42.256
		c0.048,0.176,0.099,0.354,0.15,0.533c2.74,9.562,9.935,26.826,18.756,29.934c0.5,0.176,1.004,0.307,1.514,0.387
		c0.339,0.055,0.681,0.086,1.024,0.096c0.859,0.021,1.73-0.1,2.61-0.383c0.881-0.285,1.659-0.695,2.342-1.217
		c0.273-0.209,0.532-0.434,0.775-0.676c0.366-0.363,0.699-0.766,1-1.199c5.339-7.68,1.078-25.891-2.293-35.25
		c-0.064-0.176-0.127-0.35-0.19-0.52c-5.401-14.613-14.436-25.709-18.622-38.67c-4.162-12.889-7.079-22.619-2.44-31.682
		c0.054-0.107,0.116-0.219,0.172-0.328c2.296-4.436,7.974-15.58,11.419-28.947C92.443,111.757,80.684,112.909,65.768,117.726z"/>
</g>
<g>
	<path d="M204.152,29.71c-17.45-5.635-33.125-6.216-41.877-5.944C176.003,5.7,195.562-4.993,213.489,0.797
		c17.944,5.795,27.557,25.937,28.108,48.645C234.568,44.072,221.343,35.262,204.152,29.71z"/>
	<path d="M238.977,73.088c-0.5,2.02-1.069,4.028-1.712,6.018c-1.422,4.403-3.514,8.525-6.044,12.353
		c-6.079-4.665-20.649-14.754-40.205-21.069c-19.907-6.429-37.362-6.72-44.933-6.455c0.188-4.575,0.902-9.131,2.321-13.525
		c0.632-1.958,1.333-3.889,2.094-5.79c5.569-0.877,21.429-2.085,46.86,6.128C223.707,59.257,235.185,69.131,238.977,73.088z"/>
	<path d="M183.838,92.614c15.288,4.937,25.438,10.736,31.974,15.612c-10.665,8.909-21.887,14.678-26.367,16.946
		c-0.109,0.055-0.226,0.11-0.332,0.165c-9.062,4.638-12.389,14.237-16.551,27.125c-4.185,12.961-3.346,27.244-7.512,42.256
		c-0.049,0.176-0.099,0.354-0.151,0.533c-2.739,9.562-9.934,26.826-18.756,29.932c-0.499,0.178-1.004,0.307-1.513,0.389
		c-0.34,0.055-0.681,0.086-1.024,0.096c-0.858,0.021-1.73-0.1-2.61-0.385c-0.881-0.283-1.658-0.695-2.342-1.215
		c-0.273-0.209-0.531-0.434-0.775-0.676c-0.366-0.365-0.698-0.766-1.001-1.201c-5.339-7.678-1.077-25.889,2.294-35.248
		c0.063-0.176,0.126-0.35,0.189-0.52c5.4-14.613,14.436-25.709,18.622-38.67c4.162-12.889,7.078-22.619,2.439-31.682
		c-0.054-0.107-0.115-0.219-0.173-0.327c-2.295-4.437-7.973-15.581-11.419-28.948C157.163,86.645,168.922,87.797,183.838,92.614z"/>
</g>
</svg>
