<?xml version="1.0" encoding="utf-8"?>
<!-- Generator: Adobe Illustrator 16.0.0, SVG Export Plug-In . SVG Version: 6.00 Build 0)  -->
<!DOCTYPE svg PUBLIC "-//W3C//DTD SVG 1.1//EN" "http://www.w3.org/Graphics/SVG/1.1/DTD/svg11.dtd">
<svg fill="#ffffff" version="1.1" id="Layer_1" xmlns="http://www.w3.org/2000/svg" xmlns:xlink="http://www.w3.org/1999/xlink" x="0px" y="0px"
	 width="250px" height="250px" viewBox="0 0 250 250" enable-background="new 0 0 250 250" xml:space="preserve">
<path d="M225.626,100.844c-0.166,0-0.329,0.009-0.494,0.013c-2.551-10.659-6.756-20.675-12.334-29.76
	c0.122-0.115,0.245-0.225,0.363-0.344c9.406-9.405,9.405-24.654,0-34.06c-9.405-9.404-24.652-9.404-34.059,0
	c-0.119,0.118-0.229,0.242-0.346,0.362c-9.083-5.577-19.099-9.782-29.759-12.333c0.004-0.165,0.012-0.328,0.012-0.493
	c0-13.301-10.78-24.083-24.083-24.083c-13.301,0-24.084,10.782-24.084,24.083c0,0.165,0.009,0.329,0.013,0.493
	c-10.659,2.551-20.675,6.756-29.76,12.333c-0.114-0.119-0.225-0.243-0.343-0.361c-9.405-9.405-24.655-9.405-34.061,0
	c-9.404,9.405-9.404,24.654,0,34.06c0.119,0.119,0.242,0.229,0.363,0.344c-5.577,9.085-9.782,19.101-12.333,29.76
	c-0.164-0.004-0.328-0.013-0.493-0.013c-13.3-0.001-24.084,10.783-24.084,24.084c0,13.302,10.783,24.082,24.084,24.084
	c0.165,0,0.329-0.01,0.493-0.014c2.552,10.661,6.757,20.676,12.334,29.76c-0.12,0.114-0.244,0.225-0.362,0.344
	c-9.405,9.403-9.405,24.654,0,34.061c9.404,9.405,24.654,9.405,34.06,0c0.119-0.118,0.229-0.242,0.344-0.363
	c9.084,5.578,19.099,9.782,29.758,12.334c-0.003,0.164-0.013,0.328-0.013,0.49c0,13.303,10.783,24.086,24.084,24.086
	c13.302,0,24.083-10.783,24.083-24.086c0-0.162-0.008-0.326-0.012-0.49c10.66-2.552,20.674-6.758,29.759-12.334
	c0.115,0.121,0.227,0.243,0.345,0.361c9.405,9.407,24.654,9.405,34.06,0c9.405-9.404,9.405-24.653,0-34.059
	c-0.118-0.119-0.242-0.229-0.363-0.344c5.577-9.086,9.783-19.101,12.334-29.76c0.165,0.004,0.328,0.012,0.494,0.012
	c13.3,0,24.083-10.78,24.083-24.083C249.709,111.627,238.926,100.844,225.626,100.844z M22.088,131.274
	c-3.089-0.468-5.458-3.127-5.458-6.347s2.37-5.88,5.458-6.348c-0.128,2.1-0.201,4.215-0.201,6.347
	C21.888,127.06,21.96,129.176,22.088,131.274z M201.507,48.35c2.276,2.277,2.48,5.835,0.627,8.35
	c-2.807-3.173-5.806-6.171-8.979-8.978C195.672,45.867,199.228,46.072,201.507,48.35z M124.927,16.629
	c3.22,0,5.879,2.37,6.348,5.459c-2.1-0.127-4.216-0.2-6.348-0.2s-4.248,0.073-6.348,0.2
	C119.047,18.999,121.708,16.629,124.927,16.629z M48.349,48.35c2.277-2.277,5.833-2.482,8.35-0.629
	c-3.173,2.807-6.171,5.805-8.978,8.978C45.867,54.184,46.071,50.626,48.349,48.35z M48.35,201.506
	c-2.277-2.277-2.481-5.835-0.628-8.351c2.807,3.175,5.805,6.172,8.978,8.979C54.184,203.987,50.627,203.782,48.35,201.506z
	 M124.927,233.227c-3.22,0-5.88-2.37-6.348-5.46c2.1,0.126,4.216,0.199,6.348,0.199s4.249-0.073,6.348-0.199
	C130.807,230.856,128.147,233.227,124.927,233.227z M201.505,201.506c-2.277,2.276-5.835,2.481-8.351,0.627
	c3.174-2.806,6.172-5.805,8.979-8.978C203.986,195.671,203.783,199.227,201.505,201.506z M223.141,130.213
	c-0.014-0.01-0.025-0.02-0.039-0.03c-0.33,6.26-1.25,12.36-2.697,18.253c0.016,0.004,0.027,0.008,0.041,0.01
	c-2.401,9.787-6.263,19.001-11.348,27.393c-0.012-0.008-0.023-0.016-0.036-0.021c-3.203,5.286-6.895,10.242-11.004,14.813
	c0.017,0.004,0.032,0.004,0.05,0.006c-2.355,2.622-4.85,5.116-7.471,7.473c-0.004-0.019-0.004-0.034-0.007-0.05
	c-4.572,4.107-9.529,7.799-14.813,11.003c0.007,0.013,0.014,0.024,0.021,0.036c-8.391,5.086-17.604,8.946-27.392,11.348
	c-0.004-0.012-0.008-0.025-0.01-0.039c-5.894,1.445-11.994,2.364-18.254,2.694c0.01,0.014,0.021,0.025,0.03,0.039
	c-1.75,0.093-3.513,0.145-5.286,0.145c-1.774,0-3.536-0.052-5.287-0.145c0.01-0.014,0.021-0.025,0.031-0.039
	c-6.258-0.33-12.36-1.249-18.254-2.694c-0.003,0.014-0.006,0.027-0.01,0.039c-9.787-2.399-18.999-6.262-27.389-11.348
	c0.007-0.012,0.015-0.023,0.022-0.036c-5.286-3.202-10.243-6.894-14.816-11.003c-0.002,0.016-0.002,0.033-0.006,0.05
	c-2.621-2.356-5.115-4.851-7.471-7.473c0.016-0.002,0.034-0.002,0.05-0.006c-4.11-4.571-7.8-9.527-11.005-14.813
	c-0.011,0.008-0.023,0.014-0.035,0.021c-5.086-8.39-8.946-17.604-11.349-27.391c0.014-0.004,0.027-0.008,0.041-0.01
	c-1.447-5.895-2.366-11.995-2.696-18.255c-0.014,0.011-0.026,0.021-0.04,0.032c-0.093-1.752-0.143-3.514-0.143-5.288
	c0-1.774,0.049-3.536,0.143-5.287c0.014,0.01,0.026,0.022,0.04,0.032c0.329-6.259,1.249-12.36,2.696-18.254
	c-0.014-0.004-0.027-0.006-0.041-0.011c2.402-9.787,6.263-19,11.348-27.391c0.012,0.007,0.024,0.014,0.036,0.022
	c3.204-5.287,6.894-10.243,11.004-14.815c-0.017-0.003-0.034-0.003-0.05-0.006c2.356-2.622,4.85-5.115,7.472-7.472
	c0.004,0.016,0.004,0.034,0.006,0.05c4.573-4.11,9.529-7.8,14.815-11.004c-0.008-0.011-0.014-0.023-0.022-0.036
	c8.391-5.085,17.604-8.946,27.391-11.348c0.004,0.013,0.007,0.027,0.01,0.041c5.894-1.447,11.996-2.366,18.254-2.696
	c-0.01-0.014-0.021-0.026-0.031-0.04c1.751-0.093,3.513-0.143,5.287-0.143c1.773,0,3.536,0.049,5.286,0.143
	c-0.009,0.014-0.021,0.026-0.03,0.04c6.26,0.33,12.36,1.249,18.254,2.696c0.002-0.014,0.006-0.027,0.01-0.041
	c9.787,2.402,19.001,6.262,27.392,11.349c-0.008,0.012-0.014,0.023-0.021,0.035c5.286,3.205,10.242,6.895,14.814,11.005
	c0.003-0.017,0.003-0.034,0.006-0.05c2.621,2.355,5.116,4.85,7.472,7.471c-0.017,0.003-0.033,0.004-0.05,0.006
	c4.109,4.572,7.801,9.528,11.003,14.815c0.013-0.008,0.024-0.015,0.036-0.022c5.086,8.391,8.947,17.604,11.348,27.391
	c-0.014,0.004-0.025,0.007-0.041,0.011c1.447,5.894,2.367,11.995,2.697,18.254c0.014-0.01,0.025-0.022,0.039-0.031
	c0.092,1.751,0.143,3.513,0.143,5.286C223.283,126.7,223.232,128.463,223.141,130.213z M227.766,131.274
	c0.127-2.099,0.2-4.215,0.2-6.348c0-2.132-0.073-4.248-0.2-6.347c3.09,0.467,5.46,3.128,5.46,6.348
	C233.225,128.147,230.854,130.807,227.766,131.274z"/>
</svg>
