<?xml version="1.0" encoding="utf-8"?>
<!-- Generator: Adobe Illustrator 16.0.0, SVG Export Plug-In . SVG Version: 6.00 Build 0)  -->
<!DOCTYPE svg PUBLIC "-//W3C//DTD SVG 1.1//EN" "http://www.w3.org/Graphics/SVG/1.1/DTD/svg11.dtd">
<svg version="1.1" id="Layer_1" xmlns="http://www.w3.org/2000/svg" xmlns:xlink="http://www.w3.org/1999/xlink" x="0px" y="0px"
	 width="250px" height="250px" viewBox="0 0 250 250" enable-background="new 0 0 250 250" xml:space="preserve">
<g>
	<g>
		<path fill="#8D96A4" d="M124.917,0c-13.171,0-23.849,10.678-23.849,23.849s10.678,23.849,23.849,23.849
			s23.849-10.677,23.849-23.849S138.088,0,124.917,0z M124.917,44.229c-11.255,0-20.379-9.124-20.379-20.379
			S113.662,3.47,124.917,3.47s20.38,9.124,20.38,20.379S136.172,44.229,124.917,44.229z"/>
		<path fill="#474B54" d="M124.917,3.47c-11.255,0-20.379,9.124-20.379,20.379s9.125,20.379,20.379,20.379s20.38-9.124,20.38-20.379
			S136.172,3.47,124.917,3.47z M124.917,30.216c-3.516,0-6.367-2.851-6.367-6.367s2.851-6.367,6.367-6.367s6.366,2.851,6.366,6.367
			S128.433,30.216,124.917,30.216z"/>
	</g>
	<g>
		<path fill="#8D96A4" d="M124.917,202.137c-13.17,0-23.849,10.679-23.849,23.85s10.678,23.849,23.849,23.849
			c13.172,0,23.849-10.678,23.849-23.849S138.089,202.137,124.917,202.137z M124.917,246.366c-11.254,0-20.379-9.125-20.379-20.38
			s9.125-20.379,20.379-20.379c11.255,0,20.38,9.124,20.38,20.379S136.172,246.366,124.917,246.366z"/>
		<path fill="#474B54" d="M124.917,205.607c-11.254,0-20.379,9.124-20.379,20.379s9.125,20.38,20.379,20.38
			c11.255,0,20.38-9.125,20.38-20.38S136.172,205.607,124.917,205.607z M124.917,232.354c-3.516,0-6.366-2.852-6.366-6.367
			s2.851-6.366,6.366-6.366c3.517,0,6.367,2.851,6.367,6.366S128.434,232.354,124.917,232.354z"/>
	</g>
</g>
<g>
	<g>
		<path fill="#8D96A4" d="M36.587,36.587c-9.313,9.313-9.313,24.414,0,33.728c9.313,9.313,24.414,9.313,33.728,0
			s9.313-24.415,0-33.728C61.001,27.274,45.9,27.274,36.587,36.587z M67.861,67.862c-7.958,7.958-20.862,7.958-28.821,0
			c-7.958-7.959-7.958-20.862,0-28.821c7.958-7.958,20.862-7.958,28.821,0C75.819,47,75.819,59.903,67.861,67.862z"/>
		<path fill="#474B54" d="M39.041,39.041c-7.958,7.959-7.958,20.862,0,28.821c7.958,7.958,20.862,7.958,28.821,0
			c7.958-7.958,7.958-20.862,0-28.821C59.902,31.083,46.999,31.083,39.041,39.041z M57.953,57.953c-2.486,2.486-6.518,2.486-9.003,0
			c-2.487-2.486-2.487-6.518,0-9.003c2.485-2.487,6.517-2.487,9.003,0C60.438,51.436,60.438,55.467,57.953,57.953z"/>
	</g>
	<g>
		<path fill="#8D96A4" d="M179.52,179.521c-9.312,9.313-9.313,24.414,0,33.728c9.314,9.313,24.415,9.312,33.728,0
			c9.313-9.314,9.313-24.414,0-33.728S188.834,170.207,179.52,179.521z M210.793,210.794c-7.957,7.959-20.861,7.959-28.82-0.001
			c-7.958-7.958-7.957-20.861,0.001-28.818c7.958-7.96,20.861-7.96,28.819-0.002C218.753,189.932,218.753,202.835,210.793,210.794z"
			/>
		<path fill="#474B54" d="M181.974,181.975c-7.958,7.957-7.959,20.86-0.001,28.818c7.959,7.96,20.863,7.96,28.82,0.001
			c7.96-7.959,7.96-20.862,0-28.821C202.835,174.015,189.932,174.015,181.974,181.975z M200.886,200.886
			c-2.486,2.486-6.518,2.486-9.004,0c-2.486-2.487-2.486-6.518,0-9.004s6.518-2.486,9.004,0S203.372,198.398,200.886,200.886z"/>
	</g>
</g>
<g>
	<g>
		<path fill="#8D96A4" d="M0,124.918c0,13.17,10.677,23.848,23.849,23.849c13.17,0,23.849-10.678,23.849-23.849
			s-10.678-23.85-23.849-23.85C10.677,101.069,0,111.746,0,124.918z M44.228,124.918c0,11.254-9.125,20.379-20.379,20.379
			c-11.255,0-20.38-9.124-20.379-20.379c0-11.255,9.124-20.38,20.379-20.379C35.103,104.539,44.228,113.664,44.228,124.918z"/>
		<path fill="#474B54" d="M3.469,124.918c0,11.255,9.124,20.379,20.379,20.379c11.254,0,20.379-9.125,20.379-20.379
			c0-11.254-9.125-20.379-20.379-20.379C12.593,104.538,3.469,113.663,3.469,124.918z M30.215,124.918
			c0,3.515-2.85,6.366-6.366,6.366c-3.517,0-6.367-2.851-6.367-6.366s2.851-6.367,6.367-6.366
			C27.365,118.552,30.215,121.402,30.215,124.918z"/>
	</g>
	<g>
		<path fill="#8D96A4" d="M202.136,124.918c0.002,13.17,10.679,23.849,23.85,23.849c13.171-0.001,23.849-10.679,23.849-23.849
			c0-13.172-10.678-23.849-23.849-23.849S202.138,111.746,202.136,124.918z M246.365,124.918c0,11.254-9.124,20.379-20.38,20.379
			c-11.254,0-20.379-9.125-20.378-20.379c-0.001-11.256,9.123-20.38,20.378-20.38S246.365,113.662,246.365,124.918z"/>
		<path fill="#474B54" d="M205.607,124.918c-0.001,11.254,9.124,20.379,20.378,20.379c11.256,0,20.38-9.125,20.38-20.379
			c0-11.256-9.125-20.38-20.38-20.38S205.606,113.662,205.607,124.918z M232.353,124.918c0,3.515-2.851,6.366-6.367,6.366
			c-3.516,0-6.366-2.851-6.366-6.366c0-3.517,2.851-6.367,6.366-6.367C229.502,118.551,232.353,121.401,232.353,124.918z"/>
	</g>
</g>
<g>
	<g>
		<path fill="#8D96A4" d="M36.587,213.248c9.313,9.312,24.414,9.313,33.728,0c9.313-9.313,9.313-24.414,0-33.728
			s-24.414-9.313-33.728,0S27.273,203.934,36.587,213.248z M67.861,181.974c7.958,7.958,7.958,20.861,0,28.819
			c-7.958,7.96-20.862,7.96-28.821,0.001c-7.958-7.959-7.958-20.862,0-28.82C46.999,174.016,59.903,174.016,67.861,181.974z"/>
		<path fill="#474B54" d="M39.041,210.794c7.958,7.959,20.862,7.959,28.821-0.001c7.958-7.958,7.958-20.861,0-28.819
			c-7.958-7.958-20.862-7.958-28.82,0C31.082,189.932,31.083,202.835,39.041,210.794z M57.953,191.882
			c2.486,2.486,2.486,6.517,0,9.004c-2.486,2.487-6.518,2.487-9.003,0c-2.487-2.486-2.487-6.518,0-9.004
			C51.436,189.396,55.466,189.396,57.953,191.882z"/>
	</g>
	<g>
		<path fill="#8D96A4" d="M179.52,70.315c9.314,9.312,24.414,9.314,33.728,0c9.313-9.315,9.313-24.415,0-33.728
			c-9.313-9.314-24.413-9.314-33.728,0C170.206,45.902,170.207,61.001,179.52,70.315z M210.793,39.041
			c7.96,7.958,7.96,20.861-0.001,28.821c-7.957,7.958-20.861,7.958-28.818,0c-7.959-7.958-7.96-20.861-0.002-28.82
			C189.931,31.083,202.835,31.083,210.793,39.041z"/>
		<path fill="#474B54" d="M181.974,67.861c7.957,7.958,20.861,7.958,28.818,0c7.961-7.959,7.961-20.863,0.001-28.821
			c-7.958-7.958-20.862-7.958-28.821,0C174.014,47,174.015,59.903,181.974,67.861z M200.886,48.95
			c2.485,2.486,2.485,6.517-0.001,9.003c-2.487,2.486-6.518,2.486-9.003,0c-2.486-2.486-2.486-6.518-0.001-9.003
			C194.367,46.463,198.398,46.463,200.886,48.95z"/>
	</g>
</g>
<path fill="#CDAC7A" d="M124.917,21.917c-56.353,0-102.034,45.683-102.034,102.034c0,56.353,45.682,102.035,102.034,102.035
	c56.352,0,102.034-45.683,102.034-102.035C226.951,67.6,181.27,21.917,124.917,21.917z M124.917,221.348
	c-53.791,0-97.397-43.605-97.397-97.396s43.606-97.397,97.397-97.397c53.792,0,97.396,43.606,97.396,97.397
	S178.709,221.348,124.917,221.348z"/>
<circle fill="#FFFFFF" cx="124.917" cy="123.951" r="97.356"/>
</svg>
