<?xml version="1.0" encoding="utf-8"?>
<!-- Generator: Adobe Illustrator 16.0.0, SVG Export Plug-In . SVG Version: 6.00 Build 0)  -->
<!DOCTYPE svg PUBLIC "-//W3C//DTD SVG 1.1//EN" "http://www.w3.org/Graphics/SVG/1.1/DTD/svg11.dtd">
<svg fill="#ffffff" version="1.1" id="Layer_1" xmlns="http://www.w3.org/2000/svg" xmlns:xlink="http://www.w3.org/1999/xlink" x="0px" y="0px"
	 width="250px" height="250px" viewBox="0 0 250 250" enable-background="new 0 0 250 250" xml:space="preserve">
<path d="M116.427,134.993c1.359,0.566,3.274,0.056,4.709-1.382c1.758-1.758,2.132-4.232,0.837-5.527
	c-1.294-1.296-3.77-0.92-5.527,0.838c-1.437,1.436-1.949,3.35-1.382,4.709c-8.935,6.26-37.923,33.255-51.916,47.248
	c-16.283,16.283-14.622,17.321-12.957,18.986c1.666,1.667,2.705,3.327,18.988-12.956
	C83.172,172.916,110.167,143.928,116.427,134.993z"/>
<path d="M132.951,152.729c0.987,1.093,2.938,1.446,4.85,0.761c2.339-0.841,3.734-2.919,3.115-4.643
	c-0.618-1.725-3.017-2.441-5.356-1.602c-1.911,0.687-3.191,2.198-3.259,3.67c-10.751,1.849-48.487,13.894-67.113,20.578
	c-21.675,7.778-20.616,9.427-19.82,11.645c0.795,2.215,1.026,4.162,22.701-3.617C86.694,172.836,123.478,158.138,132.951,152.729z"
	/>
<path d="M54.938,120.39c0-3.613-0.701-7.062-1.961-10.228c0.505-1.354,0.415-2.947-0.388-4.338c-0.8-1.386-2.131-2.261-3.553-2.503
	c-4.291-5.462-10.588-9.271-17.785-10.307c-0.921-1.07-2.321-1.753-3.888-1.753c-1.555,0-2.943,0.672-3.865,1.727
	c-7.3,0.997-13.69,4.839-18.021,10.375c-1.34,0.29-2.579,1.145-3.34,2.461c-0.754,1.308-0.879,2.795-0.472,4.093
	c-1.323,3.231-2.058,6.766-2.058,10.473c0,3.708,0.735,7.241,2.058,10.473c-0.408,1.299-0.283,2.785,0.471,4.091
	c0.761,1.317,2,2.173,3.34,2.462c4.331,5.538,10.722,9.381,18.023,10.378c0.921,1.054,2.31,1.726,3.864,1.726
	c1.567,0,2.966-0.683,3.887-1.752c7.199-1.037,13.497-4.846,17.788-10.31c1.421-0.242,2.752-1.117,3.552-2.504
	c0.802-1.389,0.893-2.983,0.388-4.337C54.237,127.452,54.938,124.004,54.938,120.39z M27.416,145.99
	c-0.009,0-0.018-0.001-0.026-0.001s-0.018,0.001-0.026,0.001c-14.139,0-25.6-11.462-25.6-25.601c0-0.018,0.001-0.034,0.001-0.052
	c0-0.018-0.001-0.035-0.001-0.053c0-14.196,11.485-25.705,25.653-25.705c14.168,0,25.653,11.509,25.653,25.705
	S41.584,145.99,27.416,145.99z"/>
<path d="M120.294,83.548c0-4.274-0.822-8.356-2.313-12.099c0.592-1.598,0.483-3.477-0.463-5.116
	c-0.943-1.635-2.511-2.668-4.186-2.957c-5.072-6.462-12.525-10.963-21.037-12.189c-1.089-1.262-2.741-2.068-4.591-2.068
	c-1.834,0-3.472,0.792-4.562,2.035c-8.636,1.176-16.199,5.722-21.32,12.272c-1.579,0.345-3.038,1.354-3.934,2.907
	c-0.891,1.542-1.038,3.297-0.56,4.83c-1.565,3.82-2.43,8.001-2.43,12.385c0,4.383,0.865,8.564,2.43,12.384
	c-0.479,1.533-0.331,3.288,0.559,4.829c0.896,1.553,2.355,2.562,3.934,2.907c5.121,6.552,12.686,11.099,21.322,12.275
	c1.089,1.241,2.727,2.033,4.561,2.033c1.85,0,3.501-0.807,4.591-2.067c8.513-1.226,15.967-5.729,21.039-12.191
	c1.675-0.288,3.242-1.322,4.186-2.957c0.946-1.638,1.055-3.517,0.463-5.115C119.474,91.904,120.294,87.823,120.294,83.548z
	 M87.597,113.673c-16.745,0-30.32-13.602-30.32-30.381c0-16.779,13.575-30.381,30.32-30.381s30.32,13.602,30.32,30.381
	C117.917,100.071,104.342,113.673,87.597,113.673z"/>
<path d="M193.826,83.548c0-4.274-0.821-8.356-2.313-12.099c0.592-1.598,0.484-3.477-0.463-5.116
	c-0.943-1.635-2.512-2.668-4.186-2.957c-5.072-6.462-12.524-10.963-21.037-12.189c-1.089-1.262-2.741-2.068-4.591-2.068
	c-1.834,0-3.473,0.792-4.562,2.035c-8.637,1.176-16.199,5.722-21.32,12.272c-1.579,0.345-3.038,1.354-3.935,2.907
	c-0.892,1.542-1.038,3.297-0.561,4.83c-1.564,3.82-2.429,8.001-2.429,12.385c0,4.383,0.864,8.564,2.429,12.384
	c-0.478,1.533-0.331,3.287,0.559,4.829c0.897,1.553,2.356,2.562,3.935,2.907c5.121,6.552,12.686,11.099,21.323,12.275
	c1.088,1.241,2.727,2.033,4.561,2.033c1.849,0,3.501-0.807,4.59-2.067c8.514-1.226,15.967-5.729,21.039-12.191
	c1.675-0.288,3.241-1.322,4.186-2.957c0.946-1.638,1.055-3.517,0.463-5.115C193.005,91.904,193.826,87.823,193.826,83.548z
	 M161.208,113.673c-16.744,0-30.318-13.602-30.318-30.381c0-16.779,13.574-30.381,30.318-30.381c16.746,0,30.32,13.602,30.32,30.381
	C191.528,100.071,177.954,113.673,161.208,113.673z"/>
<path d="M249.042,120.39c0-3.613-0.701-7.062-1.961-10.228c0.506-1.354,0.414-2.947-0.389-4.338c-0.8-1.386-2.13-2.261-3.553-2.502
	c-4.289-5.463-10.587-9.271-17.785-10.308c-0.922-1.07-2.319-1.753-3.887-1.753c-1.556,0-2.944,0.672-3.866,1.728
	c-7.3,0.996-13.689,4.839-18.021,10.374c-1.341,0.29-2.58,1.145-3.34,2.462c-0.755,1.308-0.88,2.795-0.472,4.093
	c-1.323,3.231-2.058,6.766-2.058,10.473c0,3.708,0.734,7.241,2.057,10.473c-0.407,1.299-0.283,2.785,0.472,4.091
	c0.76,1.317,1.999,2.173,3.34,2.463c4.331,5.536,10.722,9.379,18.022,10.376c0.922,1.055,2.311,1.727,3.865,1.727
	c1.566,0,2.965-0.683,3.886-1.752c7.199-1.037,13.498-4.846,17.788-10.31c1.421-0.242,2.751-1.117,3.552-2.504
	c0.803-1.389,0.894-2.983,0.389-4.337C248.342,127.452,249.042,124.004,249.042,120.39z M221.562,145.99
	c-14.167,0-25.653-11.509-25.653-25.705s11.486-25.705,25.653-25.705c14.168,0,25.653,11.509,25.653,25.705
	S235.73,145.99,221.562,145.99z"/>
<ellipse cx="27.273" cy="120.285" rx="23.002" ry="23.049"/>
<ellipse cx="87.597" cy="83.292" rx="27.81" ry="27.867"/>
<ellipse cx="221.554" cy="120.285" rx="23.002" ry="23.049"/>
<ellipse cx="161.137" cy="83.292" rx="27.81" ry="27.867"/>
</svg>
