<?xml version="1.0" encoding="utf-8"?>
<!-- Generator: Adobe Illustrator 16.0.0, SVG Export Plug-In . SVG Version: 6.00 Build 0)  -->
<!DOCTYPE svg PUBLIC "-//W3C//DTD SVG 1.1//EN" "http://www.w3.org/Graphics/SVG/1.1/DTD/svg11.dtd">
<svg version="1.1" id="Layer_1" xmlns="http://www.w3.org/2000/svg" xmlns:xlink="http://www.w3.org/1999/xlink" x="0px" y="0px"
	 width="250px" height="151.761px" viewBox="0 49.119 250 151.761" enable-background="new 0 49.119 250 151.761"
	 xml:space="preserve">
<ellipse fill="#474B53" cx="222.414" cy="120.075" rx="25.926" ry="25.978"/>
<circle fill="#474B53" cx="162.355" cy="83.191" r="30.452"/>
<circle fill="#474B53" cx="89.03" cy="83.446" r="30.707"/>
<ellipse fill="#474B53" cx="28.886" cy="120.181" rx="25.924" ry="25.978"/>
<path fill="#CDAC79" d="M117.776,134.739c1.354,0.564,3.265,0.056,4.696-1.378c1.752-1.752,2.125-4.219,0.834-5.511
	c-1.291-1.292-3.759-0.917-5.512,0.836c-1.432,1.432-1.942,3.34-1.376,4.694c-8.909,6.242-37.812,33.156-51.763,47.109
	c-16.235,16.235-14.58,17.27-12.919,18.929c1.662,1.664,2.697,3.317,18.932-12.917C84.619,172.55,111.535,143.647,117.776,134.739z"
	/>
<path fill="#CDAC79" d="M134.252,152.422c0.982,1.094,2.93,1.443,4.836,0.762c2.332-0.841,3.723-2.914,3.105-4.631
	c-0.617-1.72-3.01-2.433-5.34-1.598c-1.908,0.685-3.182,2.192-3.25,3.659c-10.72,1.844-48.344,13.854-66.915,20.518
	c-21.611,7.756-20.555,9.399-19.761,11.61c0.792,2.209,1.023,4.149,22.633-3.605C88.131,172.471,124.807,157.816,134.252,152.422z"
	/>
<path fill="#41B823" d="M56.469,120.18c0-3.603-0.699-7.041-1.955-10.198c0.503-1.349,0.414-2.938-0.387-4.325
	c-0.798-1.382-2.125-2.254-3.543-2.496c-4.278-5.446-10.556-9.244-17.731-10.276c-0.919-1.067-2.314-1.749-3.877-1.749
	c-1.55,0-2.934,0.671-3.853,1.725c-7.278,0.994-13.649,4.824-17.968,10.344c-1.336,0.289-2.571,1.142-3.33,2.454
	c-0.752,1.304-0.877,2.786-0.471,4.08c-1.319,3.222-2.052,6.746-2.052,10.442c0,3.697,0.733,7.22,2.052,10.442
	c-0.407,1.295-0.282,2.775,0.47,4.078c0.759,1.312,1.994,2.168,3.33,2.455c4.318,5.521,10.69,9.354,17.97,10.348
	c0.918,1.052,2.303,1.722,3.852,1.722c1.563,0,2.958-0.682,3.876-1.747c7.178-1.033,13.457-4.833,17.735-10.281
	c1.417-0.24,2.744-1.112,3.542-2.496c0.8-1.387,0.891-2.972,0.387-4.324C55.77,127.222,56.469,123.783,56.469,120.18z
	 M29.028,145.704c-0.009,0-0.019-0.001-0.026-0.001c-0.008,0-0.018,0.001-0.026,0.001c-14.097,0-25.523-11.429-25.523-25.525
	c0-0.019,0.001-0.035,0.001-0.052c0-0.019-0.001-0.035-0.001-0.053c0-14.154,11.451-25.629,25.577-25.629
	s25.577,11.475,25.577,25.629S43.154,145.704,29.028,145.704z"/>
<path fill="#41B823" d="M121.632,83.446c0-4.261-0.819-8.331-2.306-12.063c0.59-1.593,0.481-3.467-0.463-5.101
	c-0.94-1.63-2.503-2.66-4.173-2.949c-5.057-6.442-12.488-10.93-20.975-12.153c-1.086-1.258-2.733-2.062-4.577-2.062
	c-1.829,0-3.462,0.79-4.549,2.028c-8.61,1.173-16.151,5.706-21.258,12.236c-1.573,0.344-3.028,1.35-3.921,2.898
	c-0.889,1.538-1.035,3.287-0.559,4.816c-1.56,3.808-2.423,7.977-2.423,12.348c0,4.37,0.863,8.539,2.423,12.348
	c-0.478,1.528-0.331,3.278,0.558,4.814c0.893,1.548,2.348,2.555,3.921,2.898c5.106,6.533,12.649,11.067,21.26,12.239
	c1.085,1.238,2.719,2.027,4.548,2.027c1.844,0,3.49-0.805,4.577-2.061c8.488-1.222,15.92-5.712,20.977-12.155
	c1.67-0.287,3.232-1.318,4.173-2.948c0.943-1.633,1.053-3.506,0.462-5.1C120.814,91.777,121.632,87.708,121.632,83.446z
	 M89.031,113.482c-16.695,0-30.23-13.562-30.23-30.292s13.535-30.292,30.23-30.292c16.696,0,30.231,13.562,30.231,30.292
	S105.727,113.482,89.031,113.482z"/>
<path fill="#41B823" d="M194.945,83.446c0-4.261-0.818-8.331-2.305-12.063c0.59-1.593,0.482-3.467-0.463-5.101
	c-0.939-1.63-2.504-2.66-4.172-2.949c-5.059-6.442-12.488-10.93-20.975-12.153c-1.086-1.258-2.734-2.062-4.578-2.062
	c-1.828,0-3.463,0.79-4.549,2.028c-8.611,1.173-16.152,5.706-21.258,12.236c-1.574,0.344-3.027,1.35-3.922,2.898
	c-0.889,1.538-1.037,3.287-0.561,4.816c-1.559,3.808-2.42,7.977-2.42,12.348c0,4.37,0.857,8.539,2.42,12.348
	c-0.479,1.528-0.328,3.277,0.557,4.814c0.896,1.548,2.35,2.555,3.924,2.898c5.105,6.533,12.65,11.067,21.26,12.239
	c1.086,1.238,2.721,2.027,4.549,2.027c1.844,0,3.49-0.805,4.578-2.061c8.488-1.222,15.92-5.712,20.977-12.155
	c1.67-0.287,3.229-1.318,4.174-2.948c0.943-1.633,1.053-3.506,0.463-5.1C194.127,91.777,194.945,87.708,194.945,83.446z
	 M162.424,113.482c-16.693,0-30.227-13.562-30.227-30.292s13.533-30.292,30.227-30.292c16.697,0,30.23,13.562,30.23,30.292
	S179.121,113.482,162.424,113.482z"/>
<path fill="#41B823" d="M250,120.18c0-3.603-0.699-7.041-1.957-10.198c0.506-1.349,0.414-2.938-0.387-4.325
	c-0.797-1.382-2.123-2.254-3.543-2.495c-4.275-5.447-10.557-9.244-17.732-10.277c-0.92-1.067-2.312-1.749-3.877-1.749
	c-1.551,0-2.934,0.671-3.852,1.725c-7.281,0.993-13.65,4.824-17.969,10.343c-1.338,0.289-2.572,1.141-3.33,2.455
	c-0.752,1.304-0.877,2.786-0.471,4.08c-1.32,3.222-2.055,6.746-2.055,10.442c0,3.697,0.73,7.22,2.055,10.442
	c-0.406,1.295-0.281,2.775,0.471,4.078c0.758,1.312,1.992,2.168,3.33,2.456c4.316,5.52,10.689,9.352,17.969,10.346
	c0.918,1.053,2.303,1.723,3.852,1.723c1.561,0,2.957-0.682,3.875-1.747c7.176-1.033,13.459-4.833,17.736-10.281
	c1.416-0.24,2.742-1.112,3.541-2.496c0.801-1.385,0.893-2.972,0.387-4.324C249.303,127.222,250,123.783,250,120.18z
	 M222.602,145.704c-14.127,0-25.578-11.476-25.578-25.629c0-14.154,11.451-25.629,25.578-25.629s25.574,11.475,25.574,25.629
	C248.178,134.229,236.729,145.704,222.602,145.704z"/>
<ellipse fill="#FFFFFF" cx="28.886" cy="120.075" rx="22.934" ry="22.981"/>
<ellipse fill="#FFFFFF" cx="89.031" cy="83.191" rx="27.728" ry="27.785"/>
<ellipse fill="#FFFFFF" cx="222.594" cy="120.075" rx="22.934" ry="22.981"/>
<path fill="#FFFFFF" d="M162.354,55.406c15.314,0,27.732,12.439,27.732,27.785s-12.418,27.786-27.732,27.786
	c-15.312,0-27.729-12.44-27.729-27.786S147.041,55.406,162.354,55.406z"/>
</svg>
