<?xml version="1.0" encoding="utf-8"?>
<!-- Generator: Adobe Illustrator 16.0.0, SVG Export Plug-In . SVG Version: 6.00 Build 0)  -->
<!DOCTYPE svg PUBLIC "-//W3C//DTD SVG 1.1//EN" "http://www.w3.org/Graphics/SVG/1.1/DTD/svg11.dtd">
<svg version="1.1" id="Layer_1" xmlns="http://www.w3.org/2000/svg" xmlns:xlink="http://www.w3.org/1999/xlink" x="0px" y="0px"
	 width="250px" height="250px" viewBox="0 0 250 250" enable-background="new 0 0 250 250" xml:space="preserve">
<polyline fill="#474B53" points="0.737,97.527 0.737,157.137 41.016,161.966 99.003,205.48 99.003,45.939 41.016,93.494 
	0.737,98.323 0.737,157.934 "/>
<path fill="none" stroke="#DA6EFF" stroke-width="10" stroke-linecap="round" stroke-miterlimit="10" d="M164.328,199.673
	c0,0,36.644-20.266,36.644-73.963c0-53.7-36.644-73.963-36.644-73.963"/>
<path fill="none" stroke="#DA6EFF" stroke-width="10" stroke-linecap="round" stroke-miterlimit="10" d="M135.468,168.255
	c0,0,21.079-11.655,21.079-42.545c0-30.89-21.079-42.545-21.079-42.545"/>
<path fill="none" stroke="#DA6EFF" stroke-width="10" stroke-linecap="round" stroke-miterlimit="10" d="M193.942,228.043
	c0,0,50.697-28.037,50.697-102.333S194.943,23.377,194.943,23.377"/>
</svg>
